<svg width="544" height="581" viewBox="0 0 544 581" fill="none" xmlns="http://www.w3.org/2000/svg">
<path d="M91.6553 537.654C195.141 594.689 362.886 594.689 466.385 537.654C569.884 480.619 569.859 388.274 466.385 331.29C362.912 274.306 195.154 274.256 91.6553 331.29C-11.8434 388.325 -11.8181 480.67 91.6553 537.654Z" fill="#F5F5F5"/>
<path d="M70.5401 497.463L78.2968 501.937C79.4861 502.544 80.8021 502.86 82.1371 502.86C83.4721 502.86 84.7881 502.544 85.9774 501.937L315.117 369.642C317.246 368.375 317.246 366.436 315.117 365.206L307.36 360.719C306.169 360.12 304.854 359.808 303.52 359.808C302.186 359.808 300.871 360.12 299.68 360.719L70.5401 493.027C68.4108 494.244 68.4108 496.234 70.5401 497.463Z" fill="#E0E0E0"/>
<path d="M407.082 459.859C429.503 471.57 465.853 471.582 488.274 459.859C510.695 448.135 510.682 429.161 488.274 417.45C465.866 405.739 429.503 405.739 407.082 417.45C384.661 429.161 384.661 448.148 407.082 459.859Z" fill="#E0E0E0"/>
<path d="M379.554 436.22C386.297 439.744 397.234 439.744 403.977 436.22C410.72 432.697 410.72 426.993 403.977 423.47C397.234 419.946 386.297 419.946 379.554 423.47C372.811 426.993 372.773 432.697 379.554 436.22Z" fill="#E0E0E0"/>
<path d="M79.995 437.856C80.2992 426.601 77.1686 407.729 66.0532 388.895C54.19 368.73 38.5245 355.232 25.3685 359.338C13.0998 363.141 15.7994 379.795 34.2406 397.919C47.1811 410.593 60.2737 426.766 66.256 445.194L76.6236 468.946L79.995 437.856Z" fill="#BA68C8"/>
<path d="M79.995 437.856C80.2992 426.601 77.1686 407.729 66.0532 388.895C54.19 368.73 38.5245 355.232 25.3685 359.338C13.0998 363.141 15.7994 379.795 34.2406 397.919C47.1811 410.593 60.2737 426.766 66.256 445.194L76.6236 468.946L79.995 437.856Z" fill="#37474F"/>
<path d="M77.9797 446.247C77.8176 446.226 77.6655 446.157 77.5434 446.048C77.4213 445.94 77.3348 445.797 77.2953 445.638C69.3992 413.496 49.4117 379.732 30.7424 366.969C30.5684 366.85 30.4482 366.668 30.4079 366.462C30.3675 366.255 30.4103 366.041 30.5269 365.866C30.6476 365.691 30.832 365.571 31.0406 365.53C31.2491 365.49 31.4651 365.533 31.6422 365.65C50.5777 378.553 70.8694 412.774 78.8415 445.296C78.8913 445.501 78.8579 445.717 78.7487 445.898C78.6395 446.078 78.4632 446.208 78.2585 446.259C78.1654 446.268 78.0716 446.263 77.9797 446.247Z" fill="white"/>
<path d="M80.1471 474.307C73.9312 479.814 66.3795 483.594 58.2459 485.271C44.228 488.35 37.574 481.95 37.574 481.95C37.574 481.95 42.3522 468.338 50.1723 464.142C50.1723 464.142 36.7121 467.729 26.2051 475.676C26.2051 475.676 17.5612 476.322 13.3406 463.344C13.3406 463.344 17.9794 455.093 34.887 449.782C34.887 449.782 24.2786 447.767 9.43692 452.507C8.33425 453.027 2.50405 436.259 0.564872 428.426C-1.3743 420.593 1.83231 420.53 7.83995 418.527C13.8476 416.525 34.7096 414.244 38.7527 417.387C42.7958 420.53 45.4321 431.962 45.4321 431.962C45.4321 431.962 48.7274 425.207 47.498 419.44C51.705 417.96 56.263 417.796 60.5653 418.971C67.5995 420.961 67.3714 424.345 67.6629 429.364C67.9918 434.413 67.5991 439.483 66.4969 444.421C66.4969 444.421 71.0089 440.023 70.2992 424.827C70.2992 424.827 80.0838 432.241 84.241 438.87C88.3981 445.498 88.5249 463.534 80.1471 474.307Z" fill="#455A64"/>
<path d="M80.1979 475.094C80.0473 475.106 79.8961 475.075 79.7632 475.003C79.6303 474.931 79.5214 474.821 79.4501 474.688C66.611 451.633 22.4916 426.589 7.09222 424.536C6.98814 424.521 6.88785 424.487 6.7971 424.434C6.70634 424.381 6.6269 424.311 6.56333 424.228C6.49975 424.144 6.45329 424.049 6.4266 423.947C6.39991 423.846 6.39353 423.74 6.4078 423.636C6.43925 423.427 6.55084 423.239 6.71887 423.111C6.88689 422.983 7.09812 422.926 7.30769 422.951C22.9605 425.017 67.8024 450.493 80.8443 473.915C80.8953 474.006 80.9277 474.107 80.9393 474.211C80.951 474.314 80.9418 474.42 80.9123 474.52C80.8828 474.62 80.8336 474.714 80.7675 474.795C80.7014 474.876 80.6198 474.943 80.5274 474.992C80.4291 475.056 80.315 475.091 80.1979 475.094Z" fill="white"/>
<path d="M470.365 403.23C470.365 403.23 472.127 387.78 479.808 375.802C487.488 363.825 498.046 356.335 507.894 355.523C517.742 354.712 525.638 363.8 515.156 370.023C504.675 376.246 485.891 382.596 477.285 405.866L470.365 403.23Z" fill="#BA68C8"/>
<path opacity="0.1" d="M470.365 403.23C470.365 403.23 472.127 387.78 479.808 375.802C487.488 363.825 498.046 356.335 507.894 355.523C517.742 354.712 525.638 363.8 515.156 370.023C504.675 376.246 485.891 382.596 477.285 405.866L470.365 403.23Z" fill="black"/>
<path d="M473.268 399.212H473.166C473.038 399.158 472.935 399.057 472.881 398.929C472.826 398.801 472.824 398.657 472.875 398.527C483.268 372.938 503.052 362.241 512.064 360.175C512.131 360.158 512.201 360.155 512.27 360.165C512.339 360.176 512.405 360.201 512.464 360.237C512.523 360.274 512.574 360.322 512.614 360.379C512.654 360.435 512.683 360.5 512.697 360.568C512.728 360.705 512.702 360.85 512.626 360.968C512.55 361.087 512.43 361.171 512.292 361.201C503.42 363.229 484.079 373.724 473.851 398.92C473.801 399.028 473.716 399.116 473.61 399.169C473.504 399.222 473.383 399.237 473.268 399.212Z" fill="white"/>
<path d="M525.879 399.516C524.979 401.531 522.786 402.571 520.746 403.395C518.705 404.218 516.487 405.106 515.385 407.007C513.167 410.809 516.817 416.246 514.421 419.973C513.865 420.721 513.163 421.349 512.357 421.818C511.551 422.286 510.657 422.586 509.732 422.698C508.203 422.92 506.663 423.059 505.118 423.116C504.384 423.102 503.652 423.043 502.926 422.938C500.795 422.464 498.568 422.705 496.588 423.623C493.534 425.334 492.596 429.187 490.746 432.153C489.6 433.907 488.088 435.392 486.314 436.505C484.539 437.619 482.544 438.335 480.467 438.604C479.098 438.781 476.538 439.035 475.143 438.249L474.852 438.072C474.664 437.865 474.486 437.65 474.32 437.425C474.313 437.396 474.313 437.366 474.32 437.337C473.775 435.347 474.662 433.281 474.7 431.215C474.706 431.092 474.706 430.97 474.7 430.847C474.624 428.452 474.548 426.082 474.497 423.699C474.383 419.314 474.332 414.916 474.37 410.518C474.37 407.666 474.053 404.548 475.258 401.861C476.601 398.908 479.922 398.845 481.176 395.942C481.671 394.789 481.95 393.547 482.444 392.381C483.192 390.665 484.4 389.189 485.934 388.118C487.469 387.046 489.27 386.42 491.139 386.31C496.943 386.005 502.152 390.708 507.945 390.277C509.438 390.076 510.919 389.792 512.381 389.427C517.083 388.553 522.52 389.896 525.156 393.864C525.726 394.677 526.09 395.616 526.216 396.601C526.341 397.585 526.226 398.586 525.879 399.516Z" fill="#BA68C8"/>
<path d="M473.749 428.173C473.623 428.138 473.516 428.054 473.452 427.94C473.388 427.826 473.372 427.691 473.407 427.565C481.417 397.488 513.103 393.141 520.517 393.673C520.646 393.689 520.764 393.753 520.849 393.851C520.933 393.95 520.978 394.076 520.974 394.206C520.969 394.271 520.951 394.334 520.922 394.392C520.892 394.45 520.852 394.502 520.802 394.545C520.753 394.587 520.696 394.619 520.634 394.639C520.572 394.66 520.506 394.667 520.441 394.662C513.192 394.142 482.203 398.401 474.357 427.818C474.343 427.883 474.315 427.943 474.276 427.997C474.237 428.05 474.187 428.095 474.13 428.128C474.073 428.161 474.01 428.182 473.944 428.19C473.879 428.198 473.812 428.192 473.749 428.173Z" fill="white"/>
<path d="M508.959 412.938C508.857 412.923 508.763 412.874 508.692 412.799C505.767 410.267 502.32 408.41 498.596 407.36C494.872 406.311 490.963 406.095 487.146 406.728C487.017 406.746 486.885 406.712 486.781 406.634C486.676 406.555 486.607 406.439 486.588 406.31C486.57 406.18 486.604 406.049 486.682 405.945C486.761 405.84 486.877 405.771 487.007 405.752C490.978 405.092 495.046 405.319 498.92 406.414C502.793 407.51 506.377 409.447 509.415 412.089C509.462 412.134 509.499 412.188 509.525 412.248C509.551 412.308 509.564 412.373 509.564 412.438C509.564 412.503 509.551 412.567 509.525 412.627C509.499 412.687 509.462 412.741 509.415 412.786C509.36 412.85 509.288 412.898 509.208 412.925C509.127 412.952 509.041 412.957 508.959 412.938Z" fill="white"/>
<path d="M83.531 497.729L78.7274 494.954C77.927 494.434 77.2607 493.733 76.7828 492.907C76.3049 492.081 76.0288 491.154 75.9771 490.201V133.912C76.0288 132.959 76.3049 132.032 76.7828 131.206C77.2607 130.38 77.927 129.679 78.7274 129.159L299.755 1.54125C300.606 1.11031 301.546 0.885742 302.499 0.885742C303.453 0.885742 304.393 1.11031 305.243 1.54125L310.06 4.31693C310.856 4.83948 311.519 5.54181 311.995 6.36734C312.47 7.19288 312.745 8.11856 312.797 9.06982V365.358C312.745 366.31 312.47 367.235 311.995 368.061C311.519 368.887 310.856 369.589 310.06 370.111L89.019 497.729C88.1685 498.16 87.2284 498.385 86.275 498.385C85.3215 498.385 84.3815 498.16 83.531 497.729Z" fill="#BA68C8"/>
<path opacity="0.4" d="M312.772 8.62621C312.582 7.20669 311.428 6.68704 310.06 7.48552L89.0188 135.104C88.2086 135.607 87.5409 136.309 87.0796 137.144L76.7754 131.2C77.2438 130.366 77.9152 129.664 78.7272 129.159L299.755 1.54125C300.606 1.11031 301.546 0.885742 302.499 0.885742C303.453 0.885742 304.393 1.11031 305.243 1.54125L310.06 4.31693C310.793 4.79975 311.415 5.4342 311.883 6.17754C312.351 6.92088 312.654 7.75585 312.772 8.62621Z" fill="white"/>
<path opacity="0.15" d="M88.5374 497.957C88.4872 497.989 88.4312 498.011 88.3726 498.021L88.0938 498.122H87.9797L87.4727 498.249H87.4093C86.3153 498.456 85.1855 498.364 84.1394 497.983C83.9299 497.905 83.7265 497.812 83.531 497.704L78.7274 494.966C77.9315 494.443 77.2693 493.74 76.7939 492.915C76.3185 492.09 76.043 491.164 75.9897 490.213V133.912C76.0224 132.955 76.2971 132.022 76.7882 131.2L87.0925 137.144C86.6116 137.964 86.3497 138.893 86.332 139.844V496.158C86.3041 496.673 86.4515 497.182 86.7503 497.603C86.925 497.813 87.1563 497.969 87.4168 498.052C87.6774 498.135 87.9562 498.142 88.2205 498.072L88.5374 497.957Z" fill="black"/>
<path d="M243.761 67.1437L243.355 66.9029L238.792 64.2793C237.135 63.3595 235.336 62.7213 233.469 62.3908C232.683 62.2134 231.974 62.0106 231.353 61.8078C230.663 61.5779 229.99 61.3027 229.337 60.984L229.68 60.5657L224.483 57.5746C224.059 57.3304 223.602 57.147 223.127 57.0296C221.188 56.5606 218.285 57.6887 215.383 57.3591C214.331 57.2508 213.316 56.9146 212.408 56.3739C211.499 55.8333 210.72 55.1012 210.123 54.2286C208.361 51.8585 207.297 47.7013 205.738 44.2665L207.132 42.2513L206.701 42.0105L201.973 39.2728C201.175 38.8032 200.264 38.558 199.337 38.5631C197.573 38.6588 195.865 39.2136 194.381 40.1727C183.063 46.7127 182.683 62.2388 178.602 72.4416C174.521 82.6445 168.754 85.8511 165.611 90.1857C162.467 94.5203 162.252 97.7903 155.294 107.423C148.335 117.055 148.057 119.362 148.057 121.174V135.471L153.202 138.437L245.839 84.9385L243.761 67.1437ZM158.843 122.239C157.638 122.924 156.65 121.998 156.65 120.135C156.636 119.246 156.827 118.365 157.207 117.561C157.587 116.757 158.147 116.051 158.843 115.496C160.047 114.799 161.023 115.75 161.023 117.613C161.035 118.502 160.843 119.382 160.461 120.184C160.078 120.986 159.516 121.69 158.817 122.239H158.843ZM199.515 82.1248C196.473 83.8865 193.811 82.8853 192.379 79.9448C188.792 80.6419 186.118 77.1691 186.118 71.2122C186.118 64.1906 189.819 56.3705 194.381 53.7343C194.965 53.3074 195.64 53.0225 196.353 52.9021C197.066 52.7817 197.797 52.8292 198.489 53.0408C199.18 53.2524 199.813 53.6223 200.336 54.1211C200.86 54.6199 201.26 55.2339 201.504 55.9143C205.104 55.2045 207.766 58.6646 207.766 64.6469C207.766 71.6685 204.077 79.4885 199.515 82.1248ZM230.275 80.9715C229.071 81.6685 228.095 80.7306 228.095 78.8802C228.078 77.9934 228.266 77.1146 228.644 76.3122C229.022 75.5099 229.581 74.8056 230.275 74.254C231.543 73.5569 232.468 74.4949 232.468 76.358C232.484 77.2442 232.295 78.1221 231.914 78.9226C231.534 79.7232 230.973 80.4245 230.275 80.9715Z" fill="#455A64"/>
<path opacity="0.5" d="M158.348 124.786L148.436 119.045C148.207 119.762 148.096 120.511 148.107 121.263V135.56L153.252 138.525L158.398 135.547L158.348 124.786Z" fill="#37474F"/>
<path opacity="0.5" d="M168.639 106.954L173.785 95.0653L165.61 90.2617C163.202 93.5824 162.505 96.2567 159.273 101.542L168.639 106.954Z" fill="#37474F"/>
<path opacity="0.5" d="M189.236 83.177L189.907 79.7169C187.626 78.7536 186.105 75.6864 186.105 71.2124C186.105 65.2428 188.779 58.7155 192.442 55.268L185.256 51.1235C182.214 58.0564 181.086 66.2314 178.602 72.4418C178.111 73.6735 177.556 74.8792 176.941 76.054L189.236 83.177Z" fill="#37474F"/>
<path d="M243.76 67.1437L243.355 66.9029C241.84 66.1934 240.244 65.6741 238.602 65.3566C235.904 64.8649 233.395 63.6367 231.352 61.8078C230.838 61.3309 230.278 60.9063 229.679 60.5404C229.245 60.2877 228.775 60.1038 228.285 59.9954C225.167 59.2476 219.489 62.6443 215.408 57.3591L215.281 57.1943C212.429 53.392 211.39 44.7861 207.119 42.2639L206.688 42.0231C204.926 41.1993 202.632 41.3514 199.502 43.1511C188.183 49.6911 187.803 65.2172 183.722 75.42C179.641 85.6229 173.874 88.8295 170.731 93.1641C167.588 97.4988 167.385 100.769 160.414 110.401C153.443 120.034 153.189 122.341 153.189 124.153V138.576L245.826 85.0779V70.7432C245.894 70.0036 245.732 69.2612 245.362 68.6171C244.992 67.973 244.433 67.4585 243.76 67.1437ZM163.912 125.205C162.645 125.902 161.732 124.964 161.732 123.101C161.716 122.212 161.904 121.332 162.282 120.528C162.66 119.724 163.218 119.017 163.912 118.462C165.179 117.765 166.092 118.716 166.092 120.579C166.115 121.463 165.934 122.34 165.563 123.143C165.191 123.945 164.639 124.651 163.95 125.205H163.912ZM199.476 82.1121C196.434 83.8738 193.773 82.8726 192.341 79.9321C191.535 78.1192 191.15 76.148 191.213 74.1653C191.213 67.1437 194.913 59.3236 199.476 56.6874C200.093 56.3204 200.765 56.0551 201.466 55.9015C205.066 55.1918 207.727 58.6519 207.727 64.6342C207.765 71.6684 204.077 79.4885 199.514 82.1248L199.476 82.1121ZM235.383 83.9245C234.115 84.6216 233.19 83.6837 233.19 81.8333C233.172 80.945 233.36 80.0645 233.741 79.2617C234.121 78.4588 234.683 77.7554 235.383 77.2071C236.65 76.51 237.563 77.4479 237.563 79.3111C237.585 80.1949 237.403 81.072 237.032 81.8743C236.66 82.6766 236.109 83.3825 235.421 83.9372L235.383 83.9245Z" fill="#37474F"/>
<path d="M207.765 64.6467C207.765 71.6683 204.077 79.4884 199.514 82.1247C196.472 83.8864 193.811 82.8851 192.378 79.9447C193.085 79.7971 193.762 79.5315 194.381 79.1589C198.944 76.5226 202.632 68.7025 202.632 61.6809C202.695 59.6983 202.309 57.727 201.504 55.9141C205.103 55.2043 207.765 58.7278 207.765 64.6467Z" fill="#263238"/>
<path d="M163.949 125.192C162.682 125.889 161.757 124.951 161.757 123.101C161.741 122.211 161.931 121.33 162.311 120.525C162.692 119.721 163.252 119.015 163.949 118.462C165.153 117.765 166.129 118.716 166.129 120.579C166.145 121.464 165.957 122.34 165.579 123.14C165.201 123.94 164.643 124.643 163.949 125.192Z" fill="#263238"/>
<path d="M235.408 83.9373C234.14 84.6344 233.228 83.6965 233.228 81.846C233.211 80.9574 233.399 80.0768 233.777 79.2724C234.155 78.468 234.713 77.7613 235.408 77.2072C236.675 76.5101 237.6 77.4607 237.6 79.3238C237.617 80.21 237.427 81.0879 237.047 81.8885C236.666 82.689 236.105 83.3903 235.408 83.9373Z" fill="#263238"/>
<path d="M103.354 168.425L295.7 57.3719C296.211 57.1155 296.775 56.9819 297.347 56.9819C297.919 56.9819 298.484 57.1155 298.995 57.3719L300.858 58.4492C301.337 58.7622 301.736 59.1834 302.022 59.6787C302.308 60.1741 302.474 60.7298 302.506 61.301V354.738C302.474 355.309 302.308 355.864 302.022 356.36C301.736 356.855 301.337 357.276 300.858 357.589L108.512 468.642C108.001 468.898 107.437 469.032 106.865 469.032C106.292 469.032 105.728 468.898 105.217 468.642L103.354 467.565C102.875 467.252 102.476 466.831 102.19 466.335C101.904 465.84 101.738 465.284 101.706 464.713V171.276C101.74 170.706 101.907 170.151 102.193 169.656C102.479 169.161 102.876 168.739 103.354 168.425Z" fill="#F5F5F5"/>
<path d="M302.442 60.8066C302.24 60.1348 301.606 59.9194 300.858 60.3503L108.512 171.403C108.018 171.715 107.616 172.152 107.346 172.67L102.2 169.705C102.467 169.184 102.87 168.746 103.366 168.437L295.712 57.3845C296.22 57.1222 296.782 56.9854 297.354 56.9854C297.925 56.9854 298.488 57.1222 298.995 57.3845L300.858 58.4492C301.266 58.7163 301.617 59.0625 301.889 59.4675C302.161 59.8724 302.349 60.3277 302.442 60.8066Z" fill="#FAFAFA"/>
<path d="M108.119 468.819C107.923 468.895 107.719 468.95 107.511 468.984H107.194C106.861 469.022 106.525 469.022 106.193 468.984C105.985 468.95 105.781 468.895 105.584 468.819L105.217 468.642L103.366 467.577C102.887 467.265 102.488 466.844 102.201 466.348C101.915 465.853 101.75 465.297 101.719 464.725V171.289C101.733 170.715 101.899 170.155 102.2 169.667L107.346 172.632C107.054 173.125 106.888 173.682 106.865 174.255V467.691C106.865 468.591 107.397 469.035 108.119 468.819Z" fill="#E0E0E0"/>
<path d="M259.172 98.9437L254.102 95.9779C253.296 95.5869 252.407 95.3965 251.511 95.423C250.615 95.4495 249.738 95.692 248.956 96.13C242.974 98.7663 240.389 99.9323 237.296 101.2L235.065 102.1C233.861 102.581 231.44 102.176 232.188 97.9551L240.135 76.5481H240.021L234.951 73.633C234.695 73.4812 234.41 73.3821 234.115 73.3415C233.929 73.3272 233.743 73.3272 233.557 73.3415C230.3 73.2655 229.375 52.2767 229.349 51.6303L229.121 51.5036L224.127 48.5885C223.263 48.0984 222.282 47.8489 221.288 47.8661C219.638 47.9091 218.023 48.3435 216.573 49.1335C208.753 53.24 200.857 65.4074 198.931 76.3326C197.663 83.2275 190.781 93.8359 186.776 97.7396C182.771 101.643 182.492 104.913 182.492 104.913L179.374 122.581L178.373 128.234C177.638 132.455 173.303 136.536 173.303 136.536L157.181 148.716C147.042 157.106 144.228 165.573 142.289 176.054V176.13C142.289 176.498 142.289 176.752 142.467 176.853C142.493 176.868 142.524 176.877 142.555 176.877C142.586 176.877 142.617 176.868 142.644 176.853L144.71 175.674L255.712 111.656C256.24 111.294 256.604 110.739 256.726 110.11C257.36 106.307 259.261 99.1211 259.261 99.1211L259.172 98.9437ZM227.081 66.51C225.889 73.2274 221.048 80.718 216.231 83.2402C212.911 84.9766 210.49 83.8992 209.679 80.8447C209.082 81.0796 208.436 81.1598 207.8 81.0778C207.164 80.9958 206.559 80.7543 206.041 80.3758C204.495 79.1083 218.639 54.8876 219.793 55.42C220.35 55.7073 220.833 56.1183 221.207 56.6214C221.58 57.1244 221.833 57.7063 221.947 58.3224C225.889 57.1183 228.145 60.477 227.081 66.51Z" fill="#455A64"/>
<path opacity="0.5" d="M158.347 160.465L150.261 155.788C145.559 161.96 143.683 168.462 142.289 176.004V176.08C142.289 176.447 142.289 176.701 142.467 176.802C142.493 176.818 142.524 176.826 142.555 176.826C142.586 176.826 142.617 176.818 142.644 176.802L148.981 171.732L158.347 160.465Z" fill="#37474F"/>
<path opacity="0.5" d="M177.841 130.097L189.248 136.675L194.394 106.954L184.115 101.022C183.297 102.199 182.747 103.54 182.505 104.952L179.387 122.62L178.386 128.272C178.259 128.896 178.077 129.507 177.841 130.097Z" fill="#37474F"/>
<path opacity="0.5" d="M204.33 62.1753C201.724 66.5595 199.897 71.3623 198.931 76.3706C198.12 79.9386 196.76 83.3591 194.9 86.51L204.685 92.1628L209.539 80.9333C208.96 81.1402 208.339 81.2032 207.729 81.1171C207.12 81.031 206.541 80.7983 206.041 80.439C205.243 79.8053 208.576 73.0879 212.201 66.7761L204.33 62.1753Z" fill="#37474F"/>
<path d="M259.248 98.9819H259.172C258.374 98.6076 257.499 98.4274 256.617 98.4561C255.736 98.4847 254.875 98.7213 254.102 99.1466C246.764 102.379 244.546 103.443 240.161 105.167C238.995 105.636 236.65 105.256 237.258 101.289C237.252 101.2 237.252 101.111 237.258 101.022L238.259 95.3697L241.035 79.9704C241.035 79.9704 241.669 77.5495 240.059 76.637H239.945C239.548 76.4524 239.115 76.3572 238.678 76.3582C237.742 76.2469 236.843 75.9258 236.049 75.4189C235.254 74.912 234.585 74.2322 234.09 73.4304C233.222 72.1428 232.622 70.6938 232.326 69.1696C232.03 67.6454 232.043 66.0772 232.366 64.5583C233.532 57.955 232.252 53.3289 229.324 51.6051L229.096 51.4657C227.207 50.4645 224.673 50.6292 221.707 52.1882C213.887 56.2947 205.991 68.462 204.064 79.3873C202.797 86.2822 195.914 96.8906 191.909 100.794C187.904 104.698 187.625 107.968 187.625 107.968L184.508 125.636L183.506 131.289C182.771 135.509 178.436 139.591 178.436 139.591L162.378 151.644C155.941 156.768 151.295 163.801 149.108 171.733C149.108 171.733 143.062 176.422 142.682 176.802L144.748 175.624L256.067 111.631C256.067 111.631 257.334 110.934 257.626 110.756C257.917 110.579 262.391 106.346 262.391 106.346C262.176 102.695 261.111 100.097 259.248 98.9819ZM227.081 66.5102C225.889 73.2276 221.048 80.7181 216.231 83.2403C212.911 84.9767 210.49 83.8994 209.679 80.8449C209.318 79.1272 209.318 77.3534 209.679 75.6357C210.87 68.9183 215.724 61.4278 220.541 58.9183C220.987 58.6786 221.453 58.4793 221.935 58.3226C225.889 57.1185 228.145 60.4772 227.081 66.5102Z" fill="#37474F"/>
<path d="M227.081 66.5101C225.889 73.2275 221.048 80.718 216.231 83.2402C212.911 84.9766 210.49 83.8993 209.679 80.8447C210.163 80.6906 210.634 80.4955 211.086 80.2617C215.902 77.7269 220.756 70.249 221.935 63.5316C222.301 61.8145 222.301 60.0395 221.935 58.3224C225.889 57.1184 228.145 60.4771 227.081 66.5101Z" fill="#263238"/>
<path d="M222.429 58.6009C222.882 58.5723 223.335 58.6611 223.744 58.8587C224.152 59.0564 224.503 59.3561 224.762 59.729C226.751 62.568 224.838 69.7924 224.014 72.0991C222.86 75.3184 215.395 82.8596 213.342 82.8596C212.663 82.748 212.014 82.4994 211.435 82.129C210.855 81.7586 210.357 81.2741 209.971 80.705C209.632 79.032 209.632 77.3082 209.971 75.6353C211.149 69.0066 215.953 61.6048 220.668 59.1586C221.072 58.9302 221.496 58.7393 221.935 58.5883H222.379M222.379 58.2714H221.872C221.39 58.4281 220.924 58.6275 220.478 58.8671C215.661 61.402 210.807 68.8672 209.616 75.5846C209.255 77.3022 209.255 79.0761 209.616 80.7937C210.03 81.4139 210.568 81.9414 211.196 82.3428C211.824 82.7443 212.529 83.0109 213.266 83.1258C215.497 83.1258 223 75.5212 224.204 72.1625C225.408 68.8038 228.006 58.2207 222.328 58.2207L222.379 58.2714Z" fill="#263238"/>
<path d="M142.644 176.815L256.029 111.631L257.601 110.756C257.88 110.592 262.366 106.333 262.366 106.333L149.058 171.733C149.058 171.733 142.188 177.043 142.644 176.815Z" fill="#263238"/>
<path d="M122.53 206.46L153.202 188.488V224.166L122.53 242.126V206.46Z" fill="#FAFAFA"/>
<path d="M123.798 207.182V239.971L151.935 223.494V190.706L123.798 207.182ZM122.53 243.393C122.309 243.391 122.091 243.335 121.896 243.228C121.703 243.117 121.543 242.956 121.431 242.762C121.32 242.569 121.262 242.349 121.263 242.126V206.46C121.261 206.238 121.317 206.019 121.426 205.826C121.535 205.632 121.693 205.471 121.884 205.357L152.556 187.398C152.748 187.287 152.967 187.228 153.189 187.228C153.412 187.228 153.631 187.287 153.823 187.398C154.015 187.508 154.174 187.667 154.285 187.858C154.396 188.05 154.456 188.267 154.457 188.488V224.166C154.456 224.387 154.396 224.604 154.285 224.796C154.174 224.987 154.015 225.146 153.823 225.256L123.151 243.216C122.963 243.327 122.749 243.389 122.53 243.393Z" fill="#455A64"/>
<path d="M168.639 180.833V183.368C168.639 184.774 169.628 185.345 170.832 184.635L279.705 121.796C280.344 121.378 280.877 120.817 281.26 120.157C281.643 119.496 281.865 118.755 281.91 117.993V115.395C281.91 114.001 280.921 113.431 279.705 114.128L170.832 176.992C170.188 177.413 169.654 177.981 169.273 178.648C168.892 179.316 168.674 180.065 168.639 180.833Z" fill="#E0E0E0"/>
<path d="M168.639 196.409V198.944C168.639 200.339 169.628 200.909 170.832 200.212L279.705 137.36C280.345 136.944 280.879 136.383 281.262 135.722C281.645 135.062 281.867 134.32 281.91 133.557V131.022C281.91 129.616 280.921 129.045 279.705 129.755L170.832 192.607C170.193 193.024 169.662 193.586 169.281 194.246C168.9 194.907 168.68 195.648 168.639 196.409Z" fill="#E0E0E0"/>
<path d="M168.639 211.897V214.432C168.639 215.826 169.628 216.397 170.832 215.7L279.705 152.847C280.346 152.433 280.88 151.872 281.264 151.211C281.647 150.55 281.868 149.808 281.91 149.045V146.51C281.91 145.116 280.921 144.546 279.705 145.243L170.832 208.095C170.195 208.514 169.666 209.076 169.285 209.736C168.904 210.397 168.683 211.136 168.639 211.897Z" fill="#E0E0E0"/>
<path d="M138.373 224.686L131.237 217.829L134.317 211.315L138.373 215.231L155.268 179.464L158.348 182.417L138.373 224.686Z" fill="#BA68C8"/>
<path d="M122.53 271.847L153.202 253.888V289.553L122.53 307.513V271.847Z" fill="#FAFAFA"/>
<path d="M123.798 272.569V305.307L151.935 288.831V256.093L123.798 272.569ZM122.53 308.78C122.308 308.781 122.09 308.725 121.896 308.615C121.703 308.504 121.543 308.343 121.431 308.149C121.32 307.955 121.262 307.736 121.263 307.513V271.847C121.263 271.627 121.32 271.411 121.429 271.22C121.538 271.029 121.695 270.869 121.884 270.757L152.556 252.797C152.748 252.683 152.967 252.622 153.191 252.62C153.415 252.618 153.635 252.676 153.829 252.786C154.024 252.897 154.185 253.057 154.298 253.251C154.41 253.444 154.469 253.664 154.47 253.887V289.553C154.47 289.776 154.412 289.996 154.301 290.19C154.19 290.383 154.029 290.544 153.836 290.656L123.164 308.615C122.971 308.725 122.752 308.781 122.53 308.78Z" fill="#455A64"/>
<path d="M168.639 246.22V248.755C168.639 250.149 169.628 250.719 170.832 250.022L279.705 187.17C280.346 186.755 280.88 186.194 281.264 185.534C281.647 184.873 281.868 184.131 281.91 183.368V180.833C281.91 179.426 280.921 178.868 279.705 179.565L170.832 242.418C170.195 242.837 169.666 243.399 169.285 244.059C168.904 244.719 168.683 245.459 168.639 246.22Z" fill="#E0E0E0"/>
<path d="M168.639 261.809V264.344C168.639 265.751 169.628 266.308 170.832 265.611L279.705 202.759C280.346 202.344 280.88 201.783 281.264 201.123C281.647 200.462 281.868 199.72 281.91 198.957V196.422C281.91 195.028 280.921 194.457 279.705 195.154L170.832 258.019C170.195 258.435 169.665 258.995 169.284 259.653C168.903 260.311 168.682 261.05 168.639 261.809Z" fill="#E0E0E0"/>
<path d="M168.639 277.297V279.832C168.639 281.226 169.628 281.797 170.832 281.099L279.705 218.247C280.345 217.832 280.879 217.271 281.262 216.61C281.645 215.949 281.867 215.208 281.91 214.445V211.91C281.91 210.503 280.921 209.933 279.705 210.643L170.832 273.495C170.195 273.913 169.665 274.475 169.284 275.136C168.903 275.796 168.682 276.536 168.639 277.297Z" fill="#E0E0E0"/>
<path d="M138.373 290.085L131.237 283.216L134.317 276.714L138.373 280.618L155.268 244.851L158.348 247.816L138.373 290.085Z" fill="#BA68C8"/>
<path d="M122.53 337.247L153.202 319.274V354.953L122.53 372.912V337.247Z" fill="#FAFAFA"/>
<path d="M123.798 337.969V370.707L151.935 354.23V321.493L123.798 337.969ZM122.53 374.18C122.308 374.181 122.09 374.125 121.896 374.015C121.703 373.903 121.543 373.743 121.431 373.549C121.32 373.355 121.262 373.136 121.263 372.912V337.247C121.261 337.025 121.317 336.806 121.426 336.612C121.535 336.419 121.693 336.257 121.884 336.144L152.556 318.185C152.749 318.07 152.969 318.009 153.194 318.007C153.419 318.006 153.64 318.064 153.835 318.177C154.03 318.289 154.191 318.451 154.303 318.646C154.414 318.841 154.472 319.062 154.47 319.287V354.953C154.468 355.174 154.409 355.391 154.298 355.582C154.187 355.773 154.027 355.932 153.836 356.043L123.164 374.002C122.972 374.116 122.753 374.178 122.53 374.18Z" fill="#455A64"/>
<path d="M168.639 311.619V314.154C168.639 315.548 169.628 316.118 170.832 315.421L279.705 252.645C280.345 252.23 280.879 251.669 281.262 251.008C281.645 250.347 281.867 249.606 281.91 248.843V246.308C281.91 244.901 280.921 244.331 279.705 245.041L170.832 307.893C170.205 308.304 169.681 308.854 169.3 309.5C168.92 310.146 168.694 310.871 168.639 311.619Z" fill="#E0E0E0"/>
<path d="M168.639 327.196V329.731C168.639 331.125 169.628 331.695 170.832 330.998L279.705 268.146C280.346 267.731 280.88 267.17 281.264 266.51C281.647 265.849 281.868 265.107 281.91 264.344V261.809C281.91 260.402 280.921 259.844 279.705 260.541L170.832 323.394C170.195 323.812 169.665 324.374 169.284 325.034C168.903 325.695 168.682 326.435 168.639 327.196Z" fill="#E0E0E0"/>
<path d="M168.639 342.697V345.232C168.639 346.639 169.628 347.196 170.832 346.499L279.705 283.647C280.347 283.233 280.882 282.672 281.265 282.011C281.648 281.35 281.869 280.608 281.91 279.845V277.247C281.91 275.852 280.921 275.282 279.705 275.979L170.832 338.844C170.187 339.266 169.651 339.836 169.27 340.506C168.889 341.176 168.672 341.927 168.639 342.697Z" fill="#E0E0E0"/>
<path d="M122.53 402.634L153.202 384.674V420.353L122.53 438.312V402.634Z" fill="#FAFAFA"/>
<path d="M123.798 403.369V436.094L151.935 419.618V386.892L123.798 403.369ZM122.53 439.58C122.194 439.58 121.872 439.446 121.634 439.208C121.396 438.971 121.263 438.648 121.263 438.312V402.634C121.263 402.414 121.32 402.198 121.429 402.007C121.538 401.816 121.695 401.656 121.884 401.544L152.556 383.584C152.748 383.473 152.967 383.415 153.189 383.415C153.412 383.415 153.63 383.473 153.823 383.584C154.017 383.696 154.177 383.857 154.288 384.05C154.4 384.244 154.458 384.464 154.457 384.687V420.365C154.456 420.586 154.396 420.804 154.285 420.995C154.174 421.186 154.015 421.345 153.823 421.455L123.151 439.415C122.962 439.522 122.748 439.579 122.53 439.58Z" fill="#455A64"/>
<path d="M168.639 377.019V379.554C168.639 380.961 169.628 381.518 170.832 380.821L279.705 317.969C280.346 317.554 280.88 316.993 281.264 316.333C281.647 315.672 281.868 314.93 281.91 314.167V311.632C281.91 310.238 280.921 309.667 279.705 310.364L170.832 373.229C170.195 373.645 169.665 374.205 169.284 374.863C168.903 375.521 168.682 376.26 168.639 377.019Z" fill="#E0E0E0"/>
<path d="M168.639 392.596V395.131C168.639 396.538 169.628 397.108 170.832 396.398L279.705 333.559C280.344 333.142 280.877 332.58 281.26 331.92C281.643 331.26 281.865 330.519 281.91 329.756V327.158C281.91 325.764 280.921 325.194 279.705 325.891L170.832 388.756C170.188 389.176 169.654 389.744 169.273 390.412C168.892 391.079 168.674 391.828 168.639 392.596Z" fill="#E0E0E0"/>
<path d="M168.639 408.084V410.619C168.639 412.013 169.628 412.583 170.832 411.886L279.705 349.034C280.346 348.619 280.88 348.058 281.264 347.397C281.647 346.737 281.868 345.994 281.91 345.231V342.697C281.91 341.29 280.921 340.732 279.705 341.429L170.832 404.281C170.195 404.701 169.666 405.263 169.285 405.923C168.904 406.583 168.683 407.323 168.639 408.084Z" fill="#E0E0E0"/>
<path d="M456.175 191.094C457.392 183.597 452.301 176.533 444.804 175.317C437.308 174.1 430.244 179.191 429.027 186.687C427.81 194.184 432.901 201.248 440.398 202.465C447.894 203.681 454.958 198.591 456.175 191.094Z" fill="#263238"/>
<path d="M426.208 231.796L406.588 254.61L380.238 243.203L379.731 257.475C379.731 257.475 401.277 267.551 404.611 268.235C407.944 268.92 411.138 269.655 414.028 267.437C417.399 264.902 429.503 250.884 429.503 250.884L426.208 231.796Z" fill="#FFA8A7"/>
<path d="M444.016 220.098C436.208 219.591 430.074 225.522 425.486 230.846C420.898 236.169 415.105 244.534 415.105 244.534C415.105 244.534 418.261 253.748 426.576 256.537L440.91 239.515L444.016 220.098Z" fill="#E0E0E0"/>
<path d="M475.498 421.48H465.815V438.059H475.498V421.48Z" fill="#FFA8A7"/>
<path d="M441.924 426.461L432.241 426.791L431.759 409.249L441.43 408.92L441.924 426.461Z" fill="#FFA8A7"/>
<path d="M474.852 290.073C474.852 299.325 476.056 355.359 476.056 355.359C476.272 358.02 478.769 362.963 478.236 373.103C477.501 387.045 476.297 423.078 476.297 423.078C476.297 423.078 471.76 427.577 465.346 423.078C465.346 423.078 456.576 373.154 454.852 359.402C453.331 347.387 450.758 314.775 450.758 314.775L445.397 360.048C445.397 360.048 446.969 369.072 447.323 375.435C447.678 381.797 442.076 414.142 442.076 414.142C440.506 415.123 438.706 415.676 436.856 415.745C435.006 415.814 433.17 415.397 431.531 414.535C431.531 414.535 427.361 365.245 426.36 359.491C425.359 353.736 429.567 290.035 429.567 290.035L474.852 290.073Z" fill="#37474F"/>
<path d="M465.549 223.19C467.613 223.551 469.523 224.515 471.039 225.961C472.555 227.407 473.609 229.27 474.066 231.315C474.592 233.73 474.855 236.194 474.852 238.666V290.073C468.071 297.462 444.433 300.909 429.566 290.073C429.566 290.073 429.858 244.673 430.973 237.208C432.9 224.255 439.098 219.629 445.333 220.11L460.226 222.227L465.549 223.19Z" fill="#F0F0F0"/>
<path d="M466.335 198.653C466.335 198.653 464.104 209.109 463.217 210.833C462.622 211.893 461.642 212.682 460.479 213.038L460.632 205.687L466.335 198.653Z" fill="#263238"/>
<path d="M463.534 183.659C464.313 183.566 465.103 183.652 465.843 183.911C466.584 184.17 467.255 184.596 467.805 185.155C469.643 187.031 468.616 192.899 466.335 198.653L462.14 199.135L463.534 183.659Z" fill="#263238"/>
<path d="M460.885 199.134C461.721 199.641 462.925 198.019 463.965 196.942C465.004 195.865 468.388 194.407 470.074 197.93C471.759 201.454 468.578 206.346 465.916 207.183C461.316 208.628 460.631 205.687 460.631 205.687L460.226 222.227C459.211 224.451 457.662 226.388 455.715 227.865C453.769 229.343 451.486 230.315 449.072 230.694C440.923 231.809 442.596 225.092 445.27 221.822V216.752C443.221 217.08 441.143 217.186 439.072 217.069C435.688 216.549 433.559 213.875 432.545 210.225C430.897 204.344 430.263 199.603 431.658 188.044C433.191 175.37 447.932 175.243 455.878 180.25C463.825 185.256 460.885 199.134 460.885 199.134Z" fill="#FFA8A7"/>
<path d="M460.885 200.554C461.303 200.554 462.913 197.892 463.965 196.942C465.41 195.611 463.534 183.659 463.534 183.659C463.918 182.625 463.991 181.502 463.743 180.427C463.495 179.353 462.938 178.375 462.14 177.613C460.15 175.421 456.829 175.18 451.151 174.293C448.185 173.824 443.673 173.025 440.695 172.43C437.146 171.771 434.205 171.073 431.709 173.253C430.73 174.107 430.038 175.241 429.725 176.502C429.412 177.762 429.494 179.088 429.959 180.3C430.22 180.851 430.562 181.36 430.973 181.809C431.647 182.61 432.522 183.218 433.508 183.57C433.508 183.57 435.055 184.939 440.441 185.598C445.412 185.969 450.406 185.872 455.359 185.307C456.918 185.104 457.247 186.574 458.097 190.744C458.844 194.344 459.465 200.529 460.885 200.554Z" fill="#263238"/>
<path d="M463.534 184.584L468.603 181.859C468.439 181.525 468.21 181.226 467.929 180.98C467.648 180.735 467.321 180.548 466.967 180.43C466.614 180.312 466.24 180.266 465.868 180.293C465.496 180.321 465.133 180.423 464.801 180.592C464.118 180.968 463.606 181.592 463.371 182.335C463.135 183.078 463.193 183.883 463.534 184.584Z" fill="#263238"/>
<path d="M445.346 216.777C445.346 216.777 452.887 215.256 455.486 213.85C457.034 213.041 458.305 211.787 459.136 210.25C458.736 211.791 458.029 213.235 457.057 214.496C455.131 216.967 445.308 218.78 445.308 218.78L445.346 216.777Z" fill="#F28F8F"/>
<path d="M447.159 197.246C447.171 197.541 447.27 197.826 447.443 198.066C447.616 198.305 447.856 198.489 448.132 198.593C448.409 198.698 448.71 198.719 448.998 198.654C449.286 198.589 449.549 198.44 449.754 198.227C449.958 198.014 450.096 197.745 450.149 197.454C450.202 197.164 450.169 196.864 450.053 196.592C449.937 196.32 449.744 196.088 449.498 195.925C449.251 195.762 448.962 195.675 448.667 195.674C448.464 195.678 448.265 195.721 448.079 195.802C447.893 195.883 447.726 196 447.585 196.146C447.445 196.292 447.335 196.464 447.262 196.653C447.189 196.842 447.154 197.043 447.159 197.246Z" fill="#263238"/>
<path d="M448.819 191.543L452.051 193.33C452.273 192.891 452.319 192.385 452.18 191.914C452.041 191.443 451.727 191.042 451.303 190.795C451.091 190.678 450.859 190.604 450.618 190.579C450.378 190.553 450.135 190.576 449.903 190.645C449.672 190.715 449.457 190.83 449.27 190.984C449.084 191.138 448.931 191.328 448.819 191.543Z" fill="#263238"/>
<path d="M446.03 207.689L442.57 208.957C442.646 209.188 442.767 209.402 442.927 209.586C443.086 209.77 443.281 209.92 443.5 210.028C443.718 210.135 443.956 210.198 444.199 210.212C444.442 210.226 444.686 210.192 444.915 210.11C445.371 209.921 445.739 209.567 445.946 209.118C446.153 208.669 446.183 208.159 446.03 207.689Z" fill="#F28F8F"/>
<path d="M433.673 192.797L436.626 190.529C436.488 190.333 436.312 190.168 436.108 190.042C435.905 189.916 435.678 189.833 435.442 189.796C435.205 189.759 434.964 189.771 434.732 189.829C434.5 189.887 434.282 189.992 434.091 190.136C433.695 190.443 433.432 190.889 433.354 191.384C433.276 191.878 433.39 192.384 433.673 192.797Z" fill="#263238"/>
<path d="M434.586 196.878C434.598 197.174 434.697 197.459 434.87 197.698C435.043 197.938 435.283 198.121 435.56 198.226C435.836 198.33 436.137 198.351 436.425 198.286C436.714 198.221 436.976 198.072 437.181 197.859C437.386 197.646 437.523 197.377 437.576 197.087C437.63 196.796 437.596 196.496 437.481 196.224C437.365 195.952 437.172 195.72 436.925 195.557C436.679 195.394 436.39 195.307 436.094 195.307C435.892 195.31 435.692 195.353 435.506 195.434C435.321 195.515 435.153 195.632 435.013 195.778C434.872 195.924 434.762 196.097 434.689 196.286C434.616 196.474 434.581 196.676 434.586 196.878Z" fill="#263238"/>
<path d="M442.279 195.383L441.785 204.483L437.044 202.861L442.279 195.383Z" fill="#F28F8F"/>
<path d="M465.815 433.281V431.887C464.877 432.292 462.735 440.505 458.882 444.016C455.828 446.792 451.67 450.011 450.606 453.116C449.541 456.221 456.411 458.186 459.262 457.628C462.583 457.045 468.324 454.713 469.769 452.559C471.214 450.404 471.886 447.197 473.052 445.613C474.218 444.029 476.93 442.254 477.564 440.417C477.919 439.415 477.501 437.197 477.006 435.347C476.512 433.496 476.081 431.76 475.498 431.912C475.498 432.128 475.498 432.977 475.498 432.977C474.116 434.054 472.409 434.63 470.657 434.612C469.237 434.637 465.802 434.358 465.815 433.281Z" fill="#263238"/>
<path d="M432.139 423.749C431.632 423.749 431.227 424.485 430.124 425.676C428.464 427.352 426.537 428.74 424.421 429.782C420.796 431.595 413.749 434.383 410.555 435.828C408.565 436.715 408.654 439.123 410.72 440.492C412.785 441.861 417.754 442.85 423.723 441.519C426.981 440.796 431.214 437.793 433.863 437.945C436.512 438.097 441.569 438.071 443.546 436.677C445.523 435.283 444.737 432.393 444.167 429.896C443.559 427.159 442.684 422.976 441.784 423.166V424.028C440.618 425.79 434.699 426.563 432.139 425.207V423.749Z" fill="#263238"/>
<path d="M450.758 314.813C445.753 313.251 441.15 310.612 437.272 307.082C437.272 307.082 439.883 311.949 447.615 316.486L445.397 360.086L450.758 314.813Z" fill="#263238"/>
<path d="M409.643 381.924L393.344 429.491C393.24 429.793 393.045 430.056 392.784 430.242C392.524 430.428 392.212 430.528 391.892 430.528C391.572 430.528 391.261 430.428 391 430.242C390.74 430.056 390.545 429.793 390.441 429.491L374.357 381.543L409.643 381.924Z" fill="#FFA8A7"/>
<path d="M390.441 429.491C390.545 429.794 390.74 430.056 391 430.242C391.26 430.429 391.572 430.529 391.892 430.529C392.212 430.529 392.524 430.429 392.784 430.242C393.045 430.056 393.24 429.794 393.344 429.491L396.525 420.201C395.153 420.937 393.605 421.281 392.051 421.194C390.497 421.106 388.997 420.592 387.716 419.706L387.006 419.225L390.441 429.491Z" fill="#263238"/>
<path d="M374.979 169.451V174.065V179.679L374.408 381.506C378.134 385.764 383.66 387.932 389.263 388.502C397.792 389.389 406.55 386.588 409.668 381.899L410.239 180.186V169.451C409.82 176.447 374.662 176.422 374.979 169.451Z" fill="#BA68C8"/>
<path d="M374.864 187.157V197.55C374.763 200.567 381.201 202.518 388.59 203.19C398.426 204.128 410.01 201.466 410.137 197.474V189.806V187.068C409.997 191.061 398.413 193.735 388.59 192.797C381.493 192.138 375.282 190.262 374.927 187.487C374.883 187.382 374.862 187.27 374.864 187.157Z" fill="#EBEBEB"/>
<path d="M374.89 189.755C374.636 196.751 409.896 196.663 410.15 189.666V179.261C409.896 186.257 374.661 186.346 374.89 179.349V189.755Z" fill="#BA68C8"/>
<path d="M374.978 169.451V179.717C374.674 186.587 408.705 186.79 410.238 180.224C410.28 180.098 410.301 179.965 410.302 179.831V169.489C409.82 176.447 374.661 176.422 374.978 169.451Z" fill="#EBEBEB"/>
<path opacity="0.1" d="M410.188 180.224V169.489C409.997 172.632 402.798 174.977 394.814 175.256L394.319 388.704L393.369 429.503L409.643 381.924L410.188 180.224Z" fill="black"/>
<path d="M375.143 125.902L374.978 169.489C374.839 172.467 381.176 174.432 388.527 175.142C398.363 176.105 409.998 173.507 410.226 169.527L410.378 125.8C410.378 117.106 392.735 114.913 382.203 118.538C378.261 119.793 375.46 122.214 375.143 125.902Z" fill="#F28F8F"/>
<path d="M489.592 304.534C489.283 308.93 488.703 313.302 487.856 317.627C484.953 328.805 481.24 332.164 476.284 332.494C468.388 333.013 468.337 330.06 471.886 324.965C473.442 322.744 474.632 320.288 475.41 317.69C474.248 318.659 472.97 319.48 471.607 320.136C471.002 320.454 470.298 320.532 469.638 320.353C468.977 320.175 468.409 319.753 468.046 319.173C467.792 318.641 469.161 318.108 470.682 316.258C472.609 313.9 473.597 312.025 476.259 310.073C477.143 309.198 477.705 308.05 477.856 306.815C478.261 305.219 478.54 279.857 477.108 274.61L470.365 250.212C464.839 246.41 458.958 227.651 467.361 223.596C475.245 224.483 480.999 234.8 489.605 266.688C491.063 272.367 490.48 295.865 489.592 304.534Z" fill="#FFA8A7"/>
<path d="M465.549 223.19C464.474 224.144 463.615 225.315 463.027 226.626C462.439 227.937 462.137 229.358 462.14 230.795C461.911 236.105 464.408 243.761 465.942 248.539C467.476 253.317 470.581 262.012 470.581 262.012C470.581 262.012 483.572 260.516 486.525 252.899C486.525 252.899 480.441 233.216 474.586 226.815C473.46 225.556 472.059 224.574 470.491 223.946C468.924 223.317 467.233 223.058 465.549 223.19Z" fill="#E0E0E0"/>
<path d="M382.405 227.956C382.405 227.956 385.561 225.421 391.582 226.422C394.497 226.904 393.381 237.931 383.977 240.998C377.881 243 376.639 241.974 374.674 246.98C374.674 246.98 370.999 246.22 371.886 240.643C372.864 234.868 375.436 229.482 379.313 225.091C382 221.923 382.19 219.261 383.508 220.161C384.826 221.061 384.078 223.799 384.078 223.799L382.405 227.956Z" fill="#FFA8A7"/>
</svg>
