<svg width="544" height="509" viewBox="0 0 544 509" fill="none" xmlns="http://www.w3.org/2000/svg">
<path d="M5.87256 474.921V506.218H13.092C12.7134 502.924 12.7134 499.598 13.092 496.305C13.7778 492.627 21.6206 483.125 21.3837 474.971L5.87256 474.921Z" fill="#EBEBEB"/>
<path d="M63.6279 474.921V506.218H70.8473C70.4688 502.924 70.4688 499.598 70.8473 496.305C71.5331 492.627 79.376 483.125 79.1391 474.971L63.6279 474.921Z" fill="#E0E0E0"/>
<path d="M120.161 474.921V506.218H112.93C113.301 502.924 113.301 499.599 112.93 496.305C112.231 492.627 104.401 483.125 104.625 474.971L120.161 474.921Z" fill="#EBEBEB"/>
<path d="M170.136 474.921V506.218H162.917C163.289 502.924 163.289 499.599 162.917 496.305C162.231 492.627 154.388 483.125 154.625 474.971L170.136 474.921Z" fill="#E0E0E0"/>
<path d="M173.927 320.596H0.959961V475.919H173.927V320.596Z" fill="#F5F5F5"/>
<path d="M127.331 320.596L128.615 475.919H173.927V320.596H127.331Z" fill="#E0E0E0"/>
<path d="M119.787 332.029H8.74048V371.555H119.787V332.029Z" fill="#EBEBEB"/>
<path d="M119.787 379.423H8.74048V418.949H119.787V379.423Z" fill="#EBEBEB"/>
<path d="M119.787 426.829H8.74048V466.355H119.787V426.829Z" fill="#EBEBEB"/>
<path d="M51.3088 275.97L46.5208 320.421H107.892L112.979 275.97H51.3088Z" fill="#E0E0E0"/>
<path d="M53.8401 279.161L49.1768 318.051H104.563L109.039 279.161H53.8401Z" fill="white"/>
<path d="M63.1542 285.707L60.2864 311.517H95.2363L97.0318 285.707H63.1542Z" fill="#EBEBEB"/>
<path d="M110.785 295.109L123.466 320.596L107.892 320.421L110.785 295.109Z" fill="#EBEBEB"/>
<path d="M68.3288 353.849C68.3313 354.654 68.095 355.441 67.6499 356.111C67.2047 356.781 66.5707 357.304 65.8282 357.614C65.0857 357.923 64.268 358.005 63.4787 357.85C62.6894 357.695 61.9639 357.308 61.3942 356.74C60.8245 356.172 60.4361 355.448 60.2782 354.659C60.1204 353.87 60.2002 353.053 60.5074 352.309C60.8147 351.566 61.3357 350.93 62.0044 350.483C62.6732 350.036 63.4595 349.797 64.264 349.797C65.3399 349.797 66.3719 350.223 67.1339 350.983C67.8958 351.743 68.3255 352.773 68.3288 353.849Z" fill="#E0E0E0"/>
<path d="M68.3289 401.73C68.3289 402.534 68.0905 403.32 67.6438 403.988C67.1972 404.657 66.5623 405.178 65.8196 405.485C65.0768 405.793 64.2595 405.873 63.471 405.717C62.6825 405.56 61.9583 405.173 61.3898 404.604C60.8213 404.036 60.4342 403.311 60.2773 402.523C60.1205 401.734 60.201 400.917 60.5086 400.174C60.8163 399.432 61.3373 398.797 62.0057 398.35C62.6742 397.903 63.4601 397.665 64.264 397.665C64.7983 397.663 65.3276 397.767 65.8215 397.971C66.3154 398.175 66.7642 398.474 67.142 398.852C67.5198 399.23 67.8191 399.678 68.0228 400.172C68.2265 400.666 68.3305 401.196 68.3289 401.73Z" fill="#E0E0E0"/>
<path d="M68.3289 449.597C68.3289 450.401 68.0905 451.187 67.6438 451.855C67.1972 452.524 66.5623 453.045 65.8196 453.352C65.0768 453.66 64.2595 453.741 63.471 453.584C62.6825 453.427 61.9583 453.04 61.3898 452.471C60.8213 451.903 60.4342 451.179 60.2773 450.39C60.1205 449.602 60.201 448.784 60.5086 448.042C60.8163 447.299 61.3373 446.664 62.0057 446.217C62.6742 445.771 63.4601 445.532 64.264 445.532C65.3421 445.532 66.376 445.96 67.1383 446.723C67.9006 447.485 68.3289 448.519 68.3289 449.597Z" fill="#E0E0E0"/>
<path d="M119.613 68.1029L21.5459 67.1553L24.2766 194.96L122.343 195.322L119.613 68.1029Z" fill="#E0E0E0"/>
<path d="M113.291 73.8005L27.4436 71.5811L29.9249 187.491L115.747 188.551L113.291 73.8005Z" fill="#FAFAFA"/>
<path d="M98.6402 91.1195L41.6704 90.1719L43.416 171.194L100.323 169.972L98.6402 91.1195Z" fill="#EBEBEB"/>
<path d="M43.416 171.194L99.4382 128.351L41.6704 90.1719L43.416 171.194Z" fill="#F5F5F5"/>
<path d="M541.618 1.48189L455.571 0.646484L457.978 112.778L544 113.09L541.618 1.48189Z" fill="#E0E0E0"/>
<path d="M536.057 6.49471L460.746 4.53711L462.928 106.22L538.214 107.143L536.057 6.49471Z" fill="#FAFAFA"/>
<path d="M523.202 21.6811L473.24 20.8457L474.761 91.9177L524.686 90.8579L523.202 21.6811Z" fill="#EBEBEB"/>
<path d="M474.761 91.9177L523.913 54.3368L473.24 20.8457L474.761 91.9177Z" fill="#F5F5F5"/>
<path d="M445.235 423.051C444.873 424.148 457.703 472.926 457.703 472.926L466.506 471.093L454.399 423.051H445.235Z" fill="#EBEBEB"/>
<path d="M513.451 416.081L495.845 472.926H506.12L522.99 420.121L513.451 416.081Z" fill="#F5F5F5"/>
<path d="M529.586 407.278L509.411 472.926H519.686L539.124 411.318L529.586 407.278Z" fill="#EBEBEB"/>
<path d="M451.469 468.898L461.743 504.472H513.451L522.99 468.898H451.469Z" fill="#E0E0E0"/>
<path d="M478.14 468.899C478.095 468.777 478.057 468.652 478.027 468.525L477.753 467.44C477.516 466.443 477.192 465.034 476.768 463.238L473.214 447.702L461.606 395.894L461.918 396.156H452.865L453.177 395.757C457.778 416.144 461.905 434.41 464.86 447.602C466.307 454.173 467.479 459.473 468.302 463.188C468.676 464.996 468.988 466.405 469.199 467.415C469.287 467.877 469.362 468.238 469.411 468.512C469.432 468.641 469.432 468.771 469.411 468.899C469.367 468.777 469.329 468.652 469.299 468.525C469.224 468.251 469.137 467.889 469.025 467.44C468.776 466.443 468.439 465.034 468.002 463.238C467.142 459.498 465.908 454.248 464.374 447.702C461.344 434.51 457.167 416.268 452.504 395.894L452.404 395.508H462.13L462.192 395.757C466.668 416.144 470.696 434.41 473.601 447.602C475.01 454.173 476.157 459.473 476.955 463.188C477.329 464.996 477.616 466.405 477.828 467.415L478.04 468.512C478.094 468.635 478.127 468.766 478.14 468.899Z" fill="#E0E0E0"/>
<path d="M528.676 505.956C528.676 506.131 410.297 506.28 264.338 506.28C118.379 506.28 0 506.131 0 505.956C0 505.781 118.354 505.632 264.4 505.632C410.447 505.632 528.676 505.781 528.676 505.956Z" fill="#263238"/>
<path d="M494.636 165.633C494.351 165.513 494.054 165.421 493.751 165.359C492.86 165.159 491.936 165.159 491.045 165.359C489.601 165.731 488.259 166.421 487.117 167.379C485.564 168.723 484.22 170.291 483.127 172.03C480.571 175.945 478.564 181.357 476.22 187.666C473.507 194.87 471.16 202.207 469.187 209.648C468.82 210.335 468.33 210.948 467.741 211.456C467.437 211.733 467.077 211.941 466.685 212.066C466.293 212.19 465.879 212.229 465.471 212.179C464.671 211.976 463.947 211.542 463.389 210.932C462.803 210.396 462.255 209.823 461.706 209.237C460.623 208.046 459.47 206.922 458.252 205.87C457.075 204.738 455.509 204.1 453.876 204.087C453.059 204.226 452.28 204.536 451.591 204.996C450.901 205.455 450.316 206.055 449.873 206.755C448.988 208.27 448.511 209.989 448.489 211.743C448.277 215.309 449.312 218.913 449.935 222.641C450.559 226.369 451.344 230.197 452.068 234.099C452.442 236.057 452.803 238.027 453.177 240.022L453.738 243.04C453.91 243.567 453.966 244.124 453.904 244.675C453.841 245.225 453.662 245.756 453.377 246.232C453.189 246.482 452.931 246.669 452.635 246.769C452.339 246.87 452.019 246.878 451.718 246.793C451.18 246.636 450.676 246.378 450.235 246.032L447.741 244.137C446.044 242.854 444.279 241.664 442.454 240.571C440.627 239.434 438.633 238.592 436.544 238.077C435.511 237.834 434.435 237.834 433.402 238.077C432.373 238.337 431.465 238.945 430.833 239.798C429.633 241.648 429.045 243.829 429.15 246.032C429.154 248.301 429.375 250.564 429.811 252.79C430.71 257.367 431.982 261.862 433.614 266.231C434.088 267.348 434.452 268.51 434.699 269.698C434.758 270.034 434.748 270.38 434.669 270.712C434.589 271.045 434.442 271.357 434.237 271.63C434.126 271.76 434.005 271.881 433.876 271.992C433.734 272.119 433.569 272.217 433.389 272.279C433.009 272.336 432.622 272.247 432.305 272.029C431.269 271.365 430.304 270.596 429.424 269.735L426.756 267.241C425.009 265.55 423.109 264.022 421.083 262.678C420.073 262.014 418.967 261.509 417.803 261.182C417.251 261.01 416.668 260.958 416.094 261.029C415.52 261.1 414.968 261.292 414.474 261.593C413.511 262.292 412.841 263.322 412.591 264.486C412.291 265.676 412.14 266.899 412.143 268.127C412.154 270.649 412.468 273.161 413.078 275.608C414.31 280.582 416.13 285.392 418.502 289.935C420.862 294.592 423.558 299.072 426.569 303.339C428.076 305.503 429.699 307.585 431.432 309.573C433.103 311.643 434.798 313.7 436.494 315.807V315.882L436.195 315.757L444.125 314.61C446.752 314.297 449.362 313.848 451.943 313.264C457.031 312.119 462.031 310.615 466.905 308.762C471.715 306.984 476.297 304.645 480.559 301.792C482.651 300.407 484.565 298.77 486.257 296.917C487.091 296.009 487.808 295 488.389 293.912C488.984 292.883 489.179 291.672 488.938 290.508C488.777 289.951 488.5 289.435 488.123 288.994C487.747 288.553 487.281 288.198 486.756 287.952C485.672 287.422 484.517 287.053 483.327 286.855C480.922 286.491 478.489 286.345 476.057 286.418H472.417C471.165 286.467 469.911 286.388 468.676 286.182C468.293 286.132 467.944 285.935 467.703 285.633C467.612 285.463 467.557 285.276 467.541 285.084C467.522 284.914 467.522 284.743 467.541 284.573C467.579 284.235 467.684 283.908 467.848 283.611C468.013 283.313 468.235 283.051 468.501 282.84C469.483 282.129 470.531 281.515 471.631 281.007C475.781 278.873 479.747 276.4 483.489 273.613C485.3 272.263 486.971 270.734 488.476 269.049C490.033 267.492 491.062 265.486 491.419 263.314C491.523 262.256 491.259 261.194 490.671 260.309C490.075 259.43 489.28 258.704 488.352 258.189C486.471 257.155 484.438 256.427 482.329 256.032C480.245 255.612 478.138 255.308 476.02 255.122L472.878 254.823C472.317 254.79 471.769 254.642 471.269 254.386C470.991 254.242 470.762 254.018 470.613 253.742C470.464 253.466 470.402 253.152 470.434 252.84C470.549 252.3 470.775 251.79 471.1 251.343C471.424 250.896 471.839 250.523 472.317 250.247L474.811 248.401L479.611 244.748L488.888 237.703C491.868 235.371 495.047 233.401 497.292 230.608C498.44 229.303 499.231 227.722 499.586 226.02C499.731 225.202 499.701 224.362 499.499 223.557C499.298 222.751 498.928 221.997 498.414 221.344C497.87 220.742 497.164 220.31 496.382 220.097C495.599 219.864 494.791 219.73 493.975 219.698C492.369 219.656 490.761 219.714 489.162 219.873C488.364 219.873 487.566 219.985 486.781 219.997C485.962 220.059 485.143 219.881 484.424 219.486C484.08 219.253 483.791 218.949 483.575 218.594C483.36 218.239 483.224 217.841 483.177 217.429C483.085 216.654 483.131 215.868 483.314 215.11C486.883 208.348 490.108 201.411 492.978 194.324C495.471 188.09 497.628 182.728 498.401 178.115C498.779 176.101 498.863 174.043 498.651 172.005C498.489 170.524 497.99 169.099 497.192 167.84C496.709 167.07 496.051 166.425 495.272 165.958C495.006 165.795 494.727 165.658 494.436 165.546C494.738 165.627 495.028 165.749 495.297 165.908C496.099 166.366 496.782 167.007 497.292 167.778C498.106 169.047 498.622 170.483 498.8 171.98C499.043 174.035 498.98 176.115 498.613 178.152C497.865 182.778 495.746 188.127 493.264 194.361C490.455 201.529 487.284 208.55 483.763 215.396C483.591 216.098 483.548 216.824 483.638 217.541C483.672 217.894 483.781 218.235 483.957 218.543C484.134 218.85 484.374 219.116 484.661 219.324C485.311 219.668 486.047 219.82 486.781 219.76C487.554 219.76 488.339 219.686 489.137 219.623C490.757 219.46 492.385 219.397 494.012 219.436C494.858 219.47 495.695 219.608 496.506 219.848C497.363 220.076 498.141 220.538 498.751 221.182C499.294 221.881 499.686 222.685 499.901 223.544C500.115 224.403 500.148 225.297 499.997 226.169C499.635 227.956 498.809 229.615 497.603 230.982C495.297 233.85 492.092 235.845 489.137 238.189L479.873 245.247L475.085 248.887L472.653 250.745C472.243 251.02 471.87 251.347 471.544 251.718C471.244 252.074 471.045 252.505 470.97 252.965C470.948 253.172 470.99 253.381 471.091 253.564C471.191 253.747 471.345 253.894 471.531 253.987C471.972 254.201 472.451 254.324 472.94 254.349L476.082 254.648C478.218 254.83 480.341 255.134 482.441 255.558C484.623 255.96 486.727 256.705 488.676 257.765C489.67 258.337 490.522 259.125 491.17 260.072C491.819 261.064 492.118 262.245 492.017 263.426C491.647 265.725 490.571 267.851 488.938 269.511C487.389 271.224 485.677 272.781 483.825 274.162C480.059 276.977 476.068 279.479 471.893 281.643C470.832 282.124 469.821 282.709 468.875 283.389C468.668 283.547 468.496 283.746 468.367 283.973C468.238 284.2 468.157 284.451 468.127 284.71C468.115 284.835 468.115 284.96 468.127 285.084C468.127 285.184 468.127 285.421 468.215 285.408C468.375 285.552 468.575 285.643 468.788 285.67C469.958 285.859 471.144 285.935 472.329 285.895H475.97C478.439 285.805 480.911 285.951 483.352 286.331C484.61 286.527 485.83 286.919 486.968 287.491C487.569 287.778 488.102 288.191 488.532 288.7C488.962 289.21 489.279 289.805 489.461 290.446C489.744 291.756 489.531 293.124 488.863 294.286C488.26 295.42 487.514 296.472 486.643 297.416C484.918 299.31 482.967 300.985 480.833 302.403C476.534 305.295 471.905 307.66 467.043 309.448C462.129 311.322 457.087 312.839 451.955 313.987C449.367 314.574 446.749 315.023 444.112 315.334L436.17 316.493H435.983L435.871 316.343H435.808L430.746 310.109C429.014 308.117 427.387 306.036 425.871 303.875C422.836 299.577 420.119 295.064 417.741 290.371C415.358 285.778 413.529 280.919 412.292 275.895C411.661 273.413 411.339 270.862 411.332 268.301C411.334 267.015 411.493 265.734 411.806 264.486C412.1 263.179 412.863 262.026 413.95 261.244C414.518 260.893 415.155 260.667 415.817 260.581C416.479 260.495 417.152 260.551 417.791 260.745C419.011 261.091 420.172 261.621 421.232 262.316C423.293 263.679 425.222 265.232 426.993 266.955L429.661 269.448C430.51 270.272 431.437 271.011 432.429 271.655C432.607 271.784 432.821 271.853 433.04 271.855C433.04 271.855 433.227 271.743 433.314 271.68L433.589 271.406C433.74 271.196 433.847 270.957 433.902 270.704C433.958 270.451 433.962 270.189 433.913 269.935C433.676 268.793 433.326 267.677 432.866 266.606C431.226 262.204 429.95 257.675 429.05 253.064C428.607 250.801 428.386 248.5 428.389 246.194C428.291 243.863 428.927 241.56 430.21 239.611C430.921 238.664 431.932 237.987 433.078 237.69C434.197 237.429 435.362 237.429 436.482 237.69C438.624 238.197 440.673 239.039 442.554 240.184C444.401 241.281 446.183 242.484 447.89 243.788L450.384 245.683C450.756 245.984 451.178 246.216 451.631 246.369C451.832 246.428 452.046 246.423 452.245 246.356C452.443 246.289 452.616 246.163 452.741 245.995C452.987 245.623 453.129 245.193 453.152 244.748C453.165 244.252 453.11 243.757 452.99 243.276C452.803 242.267 452.629 241.269 452.442 240.272C452.068 238.277 451.706 236.294 451.344 234.349C450.634 230.434 449.923 226.618 449.237 222.89C448.551 219.162 447.591 215.546 447.803 211.868C447.84 210.045 448.347 208.262 449.275 206.693C449.755 205.934 450.391 205.285 451.142 204.791C451.892 204.296 452.739 203.967 453.626 203.825C454.509 203.753 455.395 203.93 456.182 204.337C456.948 204.708 457.664 205.173 458.314 205.721C459.548 206.786 460.714 207.927 461.806 209.137C462.338 209.719 462.886 210.28 463.452 210.82C463.959 211.358 464.607 211.742 465.322 211.93C465.675 211.969 466.032 211.933 466.369 211.823C466.707 211.714 467.017 211.533 467.279 211.294C467.826 210.823 468.282 210.257 468.626 209.623C470.624 202.17 473.004 194.824 475.758 187.616C478.127 181.319 480.172 175.895 482.778 171.98C483.892 170.231 485.262 168.659 486.843 167.317C488.006 166.353 489.376 165.67 490.845 165.322C491.747 165.109 492.687 165.109 493.589 165.322C493.953 165.365 494.307 165.471 494.636 165.633Z" fill="#263238"/>
<path d="M488.09 182.591C488.068 182.733 488.026 182.872 487.965 183.002L487.541 184.174C487.13 185.234 486.556 186.743 485.833 188.651C484.312 192.578 482.155 198.202 479.486 205.122L458.776 259.536C450.721 280.733 443.339 300.022 437.878 313.887C435.16 320.82 432.89 326.418 431.344 330.283C430.571 332.179 429.96 333.662 429.524 334.71C429.312 335.196 429.162 335.57 429.038 335.869L428.851 336.243C428.873 336.105 428.915 335.971 428.975 335.844C429.075 335.545 429.225 335.159 429.399 334.672C429.811 333.6 430.384 332.104 431.107 330.184C432.629 326.256 434.786 320.645 437.454 313.725L458.165 259.336C466.219 238.077 473.589 218.862 479.062 204.997C481.781 198.065 484.05 192.454 485.596 188.601C486.369 186.706 486.98 185.209 487.416 184.162C487.628 183.688 487.778 183.302 487.903 183.015L488.09 182.591Z" fill="#263238"/>
<path d="M488.763 225.671C487.778 226.377 486.736 226.998 485.646 227.529L478.015 231.768C475.023 233.426 472.305 234.91 470.297 235.92C469.242 236.519 468.126 237.004 466.968 237.367C467.961 236.674 469.003 236.053 470.085 235.509L477.691 231.207C480.684 229.549 483.414 228.102 485.434 227.117C486.495 226.53 487.61 226.046 488.763 225.671Z" fill="#263238"/>
<path d="M465.958 236.569C465.796 236.643 462.828 230.983 459.337 223.925C455.846 216.868 453.103 211.082 453.29 210.995C453.477 210.908 456.419 216.581 459.923 223.638C463.427 230.696 466.12 236.481 465.958 236.569Z" fill="#263238"/>
<path d="M455.06 269.773C454.064 269.037 453.145 268.201 452.317 267.279C450.696 265.658 448.577 263.352 446.27 260.683C443.963 258.015 442.093 255.496 440.771 253.626C439.994 252.661 439.321 251.616 438.764 250.509C439.62 251.399 440.412 252.349 441.133 253.352C442.554 255.147 444.512 257.604 446.769 260.259C449.025 262.915 451.12 265.247 452.641 266.955C453.517 267.832 454.326 268.774 455.06 269.773Z" fill="#263238"/>
<path d="M477.866 264.411C476.801 264.837 475.699 265.162 474.574 265.384C472.529 265.895 469.686 266.556 466.544 267.254C463.402 267.952 460.534 268.501 458.464 268.95C457.353 269.23 456.217 269.401 455.073 269.461C456.138 269.039 457.24 268.718 458.364 268.501C460.409 267.99 463.252 267.254 466.407 266.618C469.561 265.982 472.404 265.371 474.474 264.935C475.586 264.656 476.721 264.481 477.866 264.411Z" fill="#263238"/>
<path d="M471.968 294.96C470.584 295.439 469.167 295.818 467.728 296.095C465.085 296.706 461.494 297.516 457.404 298.364C453.315 299.212 449.686 299.96 447.03 300.459C445.608 300.798 444.161 301.028 442.704 301.144C444.086 300.661 445.504 300.282 446.943 300.01C449.574 299.399 453.177 298.588 457.267 297.74C461.357 296.893 464.973 296.144 467.629 295.646C469.055 295.305 470.506 295.076 471.968 294.96Z" fill="#263238"/>
<path d="M443.352 300.795C443.004 300.554 442.69 300.269 442.417 299.947C441.843 299.373 441.045 298.525 440.06 297.453C438.102 295.309 435.471 292.279 432.703 288.825C429.935 285.371 427.554 282.129 425.895 279.748C425.06 278.563 424.412 277.59 423.975 276.905C423.715 276.567 423.505 276.193 423.352 275.795C423.664 276.08 423.941 276.403 424.175 276.755L426.269 279.486C428.015 281.792 430.447 284.972 433.215 288.413C435.983 291.855 438.539 294.934 440.409 297.141C441.469 298.293 442.452 299.514 443.352 300.795Z" fill="#263238"/>
<path d="M430.883 384.323C409.237 366.867 406.095 337.029 408.813 310.582C409.275 306.169 409.1 301.468 411.469 297.727C413.838 293.987 418.951 291.68 422.778 293.812C425.958 295.583 427.118 299.51 428.739 302.79C430.908 307.173 434.27 310.855 438.439 313.413C441.157 315.071 444.586 316.206 447.467 314.859C451.432 313.014 452.242 307.777 452.516 303.376L454.05 278.762C454.324 274.348 454.624 269.859 456.282 265.782C457.94 261.705 461.27 258.027 465.496 257.129C469.723 256.231 474.773 259.024 475.359 263.363C475.4 265.196 475.317 267.028 475.11 268.85C475.11 270.682 475.821 272.765 477.516 273.388C479.212 274.012 481.082 272.902 482.504 271.705C487.354 267.578 490.821 262.066 494.1 256.568C497.379 251.069 500.559 245.433 505.022 240.87C509.486 236.306 515.434 232.852 521.768 232.927C528.102 233.002 534.536 237.353 535.708 243.65C536.88 249.947 532.828 256.019 528.539 260.77C522.17 267.832 514.812 273.935 506.693 278.887C505.109 279.602 503.797 280.809 502.953 282.328C501.793 285.196 504.374 288.301 507.205 289.473C510.409 290.782 514 290.72 517.404 291.331C520.808 291.942 524.424 293.737 525.496 297.066C526.992 301.692 522.903 306.144 518.987 308.986C511.184 314.658 502.467 318.951 493.215 321.68C489.885 322.64 486.407 323.438 483.639 325.533C480.87 327.627 479.025 331.48 480.397 334.685C481.768 337.889 485.746 339.173 489.125 338.774C492.504 338.375 495.721 336.742 499.037 335.744C505.272 333.874 513.027 334.834 516.494 340.321C518.8 343.936 518.701 348.737 517.13 352.789C515.377 356.724 512.855 360.269 509.711 363.213C499.337 374.072 486.264 381.981 471.831 386.131C457.467 390.033 444.399 390.457 430.783 384.398" fill="#BA68C8"/>
<g opacity="0.1">
<path d="M430.883 384.324C409.237 366.867 406.095 337.03 408.813 310.583C409.275 306.17 409.1 301.469 411.469 297.728C413.838 293.988 418.951 291.681 422.778 293.813C425.958 295.584 427.118 299.511 428.739 302.79C430.908 307.174 434.27 310.856 438.439 313.414C441.157 315.072 444.586 316.207 447.467 314.86C451.432 313.015 452.242 307.778 452.516 303.377L454.05 278.763C454.324 274.349 454.624 269.86 456.282 265.783C457.94 261.706 461.27 258.028 465.496 257.13C469.723 256.232 474.773 259.025 475.359 263.364C475.4 265.196 475.317 267.029 475.11 268.85C475.11 270.683 475.821 272.766 477.516 273.389C479.212 274.013 481.082 272.903 482.504 271.706C487.354 267.579 490.821 262.067 494.1 256.569C497.379 251.07 500.559 245.434 505.022 240.871C509.486 236.307 515.434 232.853 521.768 232.928C528.102 233.003 534.536 237.354 535.708 243.651C536.88 249.948 532.828 256.02 528.539 260.771C522.17 267.833 514.812 273.936 506.693 278.888C505.109 279.603 503.797 280.81 502.953 282.329C501.793 285.197 504.374 288.302 507.205 289.474C510.409 290.783 514 290.721 517.404 291.332C520.808 291.943 524.424 293.738 525.496 297.067C526.992 301.693 522.903 306.145 518.987 308.987C511.184 314.659 502.467 318.952 493.215 321.681C489.885 322.641 486.407 323.439 483.639 325.534C480.87 327.628 479.025 331.481 480.397 334.686C481.768 337.89 485.746 339.174 489.125 338.775C492.504 338.376 495.721 336.743 499.037 335.745C505.272 333.875 513.027 334.835 516.494 340.321C518.8 343.937 518.701 348.738 517.13 352.79C515.377 356.725 512.855 360.27 509.711 363.214C499.337 374.073 486.264 381.982 471.831 386.132C457.467 390.034 444.399 390.458 430.783 384.399" fill="black"/>
</g>
<path d="M429.187 403.974C431.265 391.769 434.505 379.79 438.863 368.201C444.257 354.064 450.455 340.246 457.429 326.818L462.853 316.219C464.648 312.74 466.419 309.299 468.364 306.032C472.109 299.779 476.192 293.735 480.596 287.927C484.773 282.354 488.925 277.217 492.853 272.441C496.78 267.666 500.546 263.302 504.137 259.461C509.777 253.374 515.889 247.741 522.416 242.616C524.723 240.808 526.556 239.461 527.815 238.564L529.249 237.554C529.407 237.433 529.574 237.325 529.748 237.229C529.617 237.379 529.466 237.509 529.299 237.616L527.915 238.701C526.668 239.636 524.885 241.02 522.616 242.878C516.181 248.078 510.145 253.755 504.561 259.86C501.007 263.713 497.279 268.102 493.339 272.878C489.399 277.653 485.297 282.853 481.157 288.389C476.777 294.177 472.722 300.204 469.013 306.444C467.08 309.698 465.272 313.114 463.539 316.593L458.115 327.192C451.159 340.595 444.953 354.373 439.524 368.463C435.152 380.002 431.867 391.924 429.711 404.074" fill="#263238"/>
<path d="M468.601 305.994C468.426 305.372 468.321 304.732 468.29 304.086C468.153 302.839 467.99 301.069 467.828 298.849C467.517 294.435 467.28 288.301 467.043 281.555C466.806 274.81 466.482 268.687 466.095 264.274C465.908 262.079 465.746 260.296 465.609 259.062C465.497 258.424 465.459 257.775 465.497 257.129C465.7 257.741 465.842 258.372 465.921 259.012C466.145 260.259 466.407 262.017 466.669 264.224C467.205 268.625 467.616 274.747 467.916 281.518C468.215 288.288 468.327 294.211 468.464 298.825C468.552 300.907 468.614 302.652 468.676 304.061C468.713 304.706 468.688 305.354 468.601 305.994Z" fill="#263238"/>
<path d="M525.908 299.298C525.153 299.416 524.389 299.458 523.626 299.423C522.167 299.423 520.06 299.423 517.392 299.597C512.18 299.809 504.923 300.333 497.055 301.281C489.187 302.228 482.005 303.388 476.868 304.385C474.3 304.859 472.23 305.308 470.796 305.632C470.061 305.827 469.31 305.956 468.552 306.019C469.253 305.723 469.979 305.489 470.721 305.321C472.13 304.922 474.187 304.398 476.756 303.837C481.868 302.702 489.013 301.443 496.955 300.483C503.734 299.656 510.551 299.177 517.379 299.049C519.998 299.049 522.117 299.049 523.614 299.124C524.382 299.114 525.15 299.172 525.908 299.298Z" fill="#263238"/>
<path d="M439.636 367.179C439.488 366.961 439.374 366.721 439.299 366.468L438.464 364.349C437.753 362.516 436.793 359.822 435.658 356.493C433.377 349.822 430.509 340.508 427.479 330.197C424.449 319.885 421.681 310.546 419.536 303.838C418.489 300.571 417.616 297.89 416.98 295.895L416.294 293.738C416.197 293.49 416.134 293.23 416.107 292.965C416.249 293.187 416.362 293.425 416.444 293.676C416.669 294.249 416.943 294.922 417.267 295.795C417.978 297.628 418.938 300.321 420.085 303.651C422.367 310.321 425.235 319.636 428.252 329.96C431.269 340.284 434.062 349.598 436.207 356.306C437.254 359.573 438.115 362.254 438.701 364.249L439.387 366.406C439.505 366.651 439.589 366.911 439.636 367.179Z" fill="#263238"/>
<path d="M516.494 348.102C516.252 348.231 515.991 348.319 515.721 348.363L513.489 348.949L505.259 351.007C498.302 352.74 488.738 355.246 478.165 358.039C467.591 360.832 457.99 363.251 450.995 364.847C447.504 365.645 444.674 366.269 442.704 366.655L440.434 367.092C440.173 367.157 439.905 367.186 439.636 367.179C439.878 367.063 440.134 366.979 440.397 366.929L442.641 366.343L450.871 364.286C457.816 362.553 467.392 360.034 477.965 357.241C488.539 354.448 498.14 352.029 505.122 350.433C508.613 349.635 511.456 349.024 513.414 348.638L515.683 348.201C515.949 348.137 516.221 348.103 516.494 348.102Z" fill="#263238"/>
<path d="M435.921 40.1221H133.541V454.459H435.921V40.1221Z" fill="#455A64"/>
<path d="M423.963 429.822H367.966H158.728V56.8682H423.963V383.425V429.822Z" fill="#E0E0E0"/>
<path d="M419.774 422.901H364.275H156.919V51.9424H419.774V376.754V422.901Z" fill="#EBEBEB"/>
<path d="M391.532 394.036L361.257 418.687H152.019V52.8779H417.255V373.176L391.532 394.036Z" fill="#FAFAFA"/>
<path d="M391.532 393.998C391.532 393.998 392.068 393.537 393.153 392.652L398.003 388.687L417.193 373.063V373.138C417.193 320.52 417.093 203.563 417.006 52.8403L417.292 53.1395H154.363H152.057L152.381 52.8153C152.381 190.346 152.381 317.216 152.306 418.624L152.057 418.362L361.295 418.512H361.22L383.963 400.071L389.662 395.47C390.908 394.447 391.569 393.948 391.569 393.948L389.699 395.507L384.001 400.233L361.333 418.761L152.019 418.936H151.757V418.674C151.757 317.266 151.757 190.396 151.695 52.8652V52.541H154.326H417.255H417.554V52.8278C417.467 203.6 417.392 320.507 417.367 373.126L398.103 388.674L393.228 392.751L391.532 393.998Z" fill="#263238"/>
<path d="M248.852 27.3174H321.358C326.037 27.3174 330.525 29.1762 333.833 32.485C337.142 35.7938 339.001 40.2814 339.001 44.9607V64.5242H230.448V45.7088C230.451 40.83 232.392 36.1521 235.843 32.7034C239.294 29.2547 243.973 27.3174 248.852 27.3174Z" fill="#BA68C8"/>
<path d="M257.044 27.3169L253.079 7.24219H315.585L312.106 27.3169H257.044Z" fill="#BA68C8"/>
<path d="M224.438 155.845H179.762V111.157H224.438V155.845ZM181.009 154.598H223.191V112.404H181.009V154.598Z" fill="#BA68C8"/>
<path d="M382.355 121.955C382.355 122.13 351.245 122.279 312.891 122.279C274.537 122.279 243.415 122.13 243.415 121.955C243.415 121.78 274.512 121.631 312.891 121.631C351.27 121.631 382.355 121.768 382.355 121.955Z" fill="#263238"/>
<path d="M382.355 131.231C382.355 131.418 351.245 131.556 312.891 131.556C274.537 131.556 243.415 131.418 243.415 131.231C243.415 131.044 274.512 130.907 312.891 130.907C351.27 130.907 382.355 131.057 382.355 131.231Z" fill="#263238"/>
<path d="M382.355 140.52C382.355 140.695 351.245 140.845 312.891 140.845C274.537 140.845 243.415 140.695 243.415 140.52C243.415 140.346 274.512 140.196 312.891 140.196C351.27 140.196 382.355 140.346 382.355 140.52Z" fill="#263238"/>
<path d="M382.355 149.811C382.355 149.985 351.245 150.135 312.891 150.135C274.537 150.135 243.415 149.985 243.415 149.811C243.415 149.636 274.512 149.486 312.891 149.486C351.27 149.486 382.355 149.611 382.355 149.811Z" fill="#263238"/>
<path d="M224.438 222.687H179.762V177.999H224.438V222.687ZM181.009 221.44H223.191V179.246H181.009V221.44Z" fill="#BA68C8"/>
<path d="M204 203.435L209.935 197.064L219.823 204.969L242.454 182.999L247.878 189.395L219.386 217.5L204 203.435Z" fill="#BA68C8"/>
<path d="M382.355 190.82C382.355 190.995 351.245 191.144 312.891 191.144C274.537 191.144 243.415 190.995 243.415 190.82C243.415 190.646 274.512 190.496 312.891 190.496C351.27 190.496 382.355 190.646 382.355 190.82Z" fill="#263238"/>
<path d="M382.355 200.109C382.355 200.284 351.245 200.434 312.891 200.434C274.537 200.434 243.415 200.284 243.415 200.109C243.415 199.935 274.512 199.785 312.891 199.785C351.27 199.785 382.355 199.922 382.355 200.109Z" fill="#263238"/>
<path d="M382.355 209.386C382.355 209.573 351.245 209.71 312.891 209.71C274.537 209.71 243.415 209.573 243.415 209.386C243.415 209.199 274.512 209.062 312.891 209.062C351.27 209.062 382.355 209.211 382.355 209.386Z" fill="#263238"/>
<path d="M382.355 218.675C382.355 218.849 351.245 218.999 312.891 218.999C274.537 218.999 243.415 218.849 243.415 218.675C243.415 218.5 274.512 218.351 312.891 218.351C351.27 218.351 382.355 218.5 382.355 218.675Z" fill="#263238"/>
<path d="M224.438 289.687H179.762V244.999H224.438V289.687ZM181.009 288.44H223.191V246.246H181.009V288.44Z" fill="#BA68C8"/>
<path d="M204 270.435L209.935 264.064L219.823 271.969L242.454 249.999L247.878 256.396L219.386 284.5L204 270.435Z" fill="#BA68C8"/>
<path d="M382.355 257.466C382.355 257.64 351.245 257.79 312.891 257.79C274.537 257.79 243.415 257.64 243.415 257.466C243.415 257.291 274.512 257.142 312.891 257.142C351.27 257.142 382.355 257.279 382.355 257.466Z" fill="#263238"/>
<path d="M382.355 266.742C382.355 266.929 351.245 267.066 312.891 267.066C274.537 267.066 243.415 266.929 243.415 266.742C243.415 266.555 274.512 266.418 312.891 266.418C351.27 266.418 382.355 266.568 382.355 266.742Z" fill="#263238"/>
<path d="M382.355 276.031C382.355 276.218 351.245 276.355 312.891 276.355C274.537 276.355 243.415 276.218 243.415 276.031C243.415 275.844 274.512 275.707 312.891 275.707C351.27 275.707 382.355 275.857 382.355 276.031Z" fill="#263238"/>
<path d="M382.355 285.32C382.355 285.495 351.245 285.644 312.891 285.644C274.537 285.644 243.415 285.495 243.415 285.32C243.415 285.146 274.512 284.996 312.891 284.996C351.27 284.996 382.355 285.146 382.355 285.32Z" fill="#263238"/>
<path d="M224.438 355.707H179.762V311.019H224.438V355.707ZM181.009 354.46H223.191V312.265H181.009V354.46Z" fill="#BA68C8"/>
<path d="M180 332.435L185.935 326.064L195.823 333.969L218.454 311.999L223.878 318.383L195.386 346.488L180 332.435Z" fill="#BA68C8"/>
<path d="M382.355 321.805C382.355 321.992 351.245 322.129 312.891 322.129C274.537 322.129 243.415 321.992 243.415 321.805C243.415 321.618 274.512 321.48 312.891 321.48C351.27 321.48 382.355 321.68 382.355 321.805Z" fill="#263238"/>
<path d="M382.355 331.094C382.355 331.268 351.245 331.418 312.891 331.418C274.537 331.418 243.415 331.268 243.415 331.094C243.415 330.919 274.512 330.77 312.891 330.77C351.27 330.77 382.355 330.919 382.355 331.094Z" fill="#263238"/>
<path d="M382.355 340.383C382.355 340.557 351.245 340.707 312.891 340.707C274.537 340.707 243.415 340.557 243.415 340.383C243.415 340.208 274.512 340.059 312.891 340.059C351.27 340.059 382.355 340.196 382.355 340.383Z" fill="#263238"/>
<path d="M382.355 349.659C382.355 349.846 351.245 349.983 312.891 349.983C274.537 349.983 243.415 349.846 243.415 349.659C243.415 349.472 274.512 349.335 312.891 349.335C351.27 349.335 382.355 349.485 382.355 349.659Z" fill="#263238"/>
<path d="M369.574 358.126L340.497 418.35H361.258L369.574 358.126Z" fill="#E0E0E0"/>
<path d="M361.258 418.687L369.574 358.463L417.255 373.176L361.258 418.687Z" fill="#FAFAFA"/>
<path d="M361.258 418.687L377.292 405.482L417.055 372.926L417.168 373.475L398.751 367.814L369.537 358.749L369.923 358.5C367.43 375.956 365.297 390.981 363.789 401.629C362.28 411.991 361.507 417.34 361.295 418.687C361.29 418.595 361.29 418.504 361.295 418.412L361.407 417.589C361.507 416.804 361.644 415.707 361.831 414.31C362.218 411.38 362.766 407.178 363.465 401.841C364.911 391.106 366.931 376.006 369.287 358.363V358.014L369.624 358.113L398.913 367.141L417.317 372.827L417.891 373.001L417.429 373.375C401.332 386.355 387.255 397.702 377.18 405.794L365.422 415.233L362.28 417.727L361.482 418.363L361.258 418.687Z" fill="#263238"/>
<g opacity="0.3">
<path d="M311.258 7.24219L307.817 27.3169H312.106L315.585 7.24219H310.111" fill="black"/>
</g>
<path d="M128.179 218.962C129.682 219.075 131.193 218.885 132.621 218.401C134.049 217.918 135.365 217.152 136.49 216.149C137.616 215.146 138.527 213.926 139.171 212.563C139.814 211.199 140.177 209.72 140.236 208.214C140.473 202.104 140.685 195.932 140.685 195.932C140.685 195.932 149.937 195.072 150.66 185.957C151.383 176.843 151.022 155.671 151.022 155.671C145.95 153.112 140.287 151.955 134.618 152.318C128.949 152.682 123.48 154.554 118.777 157.74L119.338 189.96V207.304C119.351 213.064 122.381 218.526 128.179 218.962Z" fill="#FFBE9D"/>
<path d="M141.483 174.736C140.807 173.765 139.79 173.084 138.634 172.83C137.479 172.576 136.27 172.767 135.249 173.365C134.212 174.085 133.465 175.149 133.141 176.369C132.817 177.588 132.936 178.883 133.478 180.023C133.95 180.869 134.593 181.607 135.366 182.191C136.139 182.775 137.024 183.191 137.967 183.414C138.802 183.596 139.543 184.076 140.05 184.765C140.558 185.453 140.797 186.303 140.722 187.155C140.339 189.562 139.214 191.789 137.505 193.527C134.681 196.401 130.922 198.17 126.907 198.514C123.004 198.975 118.54 198.165 116.271 194.961C114.613 192.629 114.501 189.574 114.438 186.719C114.297 179.969 114.156 173.219 114.014 166.469C113.867 164.037 114.022 161.595 114.476 159.2C114.953 156.785 116.325 154.638 118.316 153.19C120.548 151.719 123.366 151.594 125.897 150.784C129.077 149.749 131.77 147.654 134.737 146.133C137.705 144.612 141.333 143.701 144.313 145.198C146.458 146.27 147.892 148.402 149.962 149.587C152.929 151.27 156.957 150.834 158.391 155.248C158.895 156.757 158.895 158.389 158.391 159.898C156.383 165.821 149.052 168.215 143.765 165.659C143.665 166.656 144.65 168.888 143.59 172.055C143.254 173.078 143.141 174.612 141.558 174.649" fill="#263238"/>
<path d="M116.209 155.845C117.662 152.949 118.655 149.845 119.152 146.643C119.387 145.04 119.249 143.404 118.75 141.862C118.25 140.32 117.402 138.914 116.271 137.753C114.602 136.304 112.445 135.542 110.236 135.621C108.138 135.74 106.128 136.505 104.48 137.811C102.833 139.117 101.63 140.899 101.034 142.915C100.521 144.947 100.6 147.085 101.263 149.073C101.926 151.062 103.145 152.819 104.775 154.137C106.442 155.417 108.418 156.235 110.502 156.506C112.587 156.778 114.706 156.494 116.645 155.683" fill="#263238"/>
<path d="M118.004 152.541C117.937 153.661 117.455 154.715 116.653 155.499C115.851 156.282 114.786 156.739 113.665 156.781C113.665 156.594 115.012 156.232 116.159 155.035C117.306 153.838 117.83 152.492 118.004 152.541Z" fill="#BA68C8"/>
<path d="M115 154.786C114.285 155.535 113.44 156.148 112.506 156.594C111.508 157.163 110.387 157.484 109.239 157.529C108.51 157.569 107.782 157.433 107.116 157.134C106.45 156.834 105.866 156.38 105.411 155.809C105.009 155.207 104.741 154.526 104.624 153.812C104.508 153.098 104.547 152.367 104.738 151.669C105.027 150.561 105.55 149.528 106.271 148.639C106.868 147.796 107.602 147.059 108.441 146.457C107.886 147.319 107.287 148.151 106.645 148.951C106.02 149.819 105.571 150.802 105.324 151.844C105.168 152.458 105.142 153.097 105.247 153.722C105.353 154.347 105.587 154.943 105.935 155.472C106.333 155.959 106.839 156.347 107.412 156.606C107.985 156.866 108.61 156.99 109.239 156.968C110.304 156.951 111.353 156.695 112.306 156.22C113.927 155.385 114.937 154.686 115 154.786Z" fill="#263238"/>
<path d="M99.4384 165.122C99.6264 165.439 99.7731 165.778 99.8748 166.132C100.198 167.067 100.656 167.949 101.234 168.751C101.618 169.331 102.157 169.792 102.789 170.083C103.421 170.374 104.122 170.482 104.812 170.397C105.639 170.163 106.391 169.72 106.996 169.111C107.601 168.501 108.039 167.746 108.266 166.918C108.714 165.174 109.027 163.398 109.201 161.606C109.378 160.069 109.982 158.613 110.947 157.404C111.638 156.609 112.579 156.072 113.615 155.883C113.99 155.791 114.385 155.826 114.738 155.983C114.738 155.983 114.326 155.983 113.665 156.132C112.729 156.391 111.899 156.942 111.296 157.703C110.447 158.875 109.926 160.253 109.788 161.693C109.644 163.529 109.339 165.348 108.877 167.13C108.62 168.065 108.118 168.915 107.424 169.592C106.729 170.27 105.866 170.749 104.925 170.983C104.064 171.12 103.182 170.953 102.431 170.509C101.808 170.131 101.273 169.625 100.86 169.025C100.288 168.167 99.8665 167.219 99.613 166.22C99.4851 165.868 99.4258 165.496 99.4384 165.122Z" fill="#263238"/>
<path d="M94.9373 242.042C94.9373 242.042 90.2615 276.231 94.9373 280.571C99.613 284.91 104.089 283.463 104.089 283.463L112.98 275.982L114.725 241.992L94.9373 242.042Z" fill="#FFBE9D"/>
<path d="M191.508 146.07L197.443 139.699L207.33 147.604L229.961 125.634L235.385 132.03L206.894 160.135L191.508 146.07Z" fill="#BA68C8"/>
<path d="M219.388 147.804L210.784 153.327C210.398 149.923 207.804 146.557 207.929 148.265C208.054 149.973 207.929 158.839 207.929 158.839L192.605 191.12C190.523 196.232 186.296 199.449 183.141 200.21L168.79 204.474L174.388 223.414L194.338 216.806C196.884 215.962 199.198 214.534 201.092 212.635C202.987 210.736 204.41 208.419 205.248 205.871L218.964 164.075C219.875 161.383 220.608 158.634 221.158 155.846C221.757 152.342 219.388 147.804 219.388 147.804Z" fill="#FFBE9D"/>
<path d="M148.902 500.882L148.677 491.318L130.747 491.605L130.909 505.608L132.032 505.67C137.019 505.857 157.231 506.306 160.523 505.258C164.189 504.074 148.902 500.882 148.902 500.882Z" fill="#BA68C8"/>
<g opacity="0.5">
<path d="M137.418 505.37C137.116 503.877 136.278 502.547 135.062 501.629C133.864 500.698 132.359 500.252 130.847 500.383L130.922 505.37H137.418Z" fill="white"/>
</g>
<g opacity="0.4">
<path d="M156.321 502.715C156.321 502.715 161.682 504.161 161.034 505.059C160.386 505.957 139.912 506.306 130.86 505.608V505.209L154.75 505.046C154.75 505.046 155.336 502.777 156.321 502.715Z" fill="white"/>
</g>
<path d="M130.648 505.196H130.959H131.845L135.112 505.283C137.867 505.346 141.67 505.371 145.872 505.283C150.074 505.196 153.89 505.084 156.633 504.947L159.899 504.76L160.785 504.697H161.084H160.772H159.887L156.633 504.822C153.877 504.909 150.074 505.034 145.872 505.096C141.67 505.159 137.867 505.096 135.112 505.096H131.857H130.61L130.648 505.196Z" fill="#263238"/>
<path d="M154.825 505.32C154.955 504.778 155.151 504.255 155.411 503.762C155.725 503.307 156.089 502.889 156.496 502.515C155.965 502.764 155.522 503.167 155.224 503.672C154.926 504.177 154.787 504.76 154.825 505.345V505.32Z" fill="#263238"/>
<path d="M149.488 502.715C149.488 502.715 149.787 502.44 150.049 502.029C150.311 501.617 150.461 501.243 150.411 501.218C150.361 501.193 150.111 501.493 149.862 501.904C149.613 502.316 149.438 502.69 149.488 502.715Z" fill="#263238"/>
<path d="M148.029 501.978C148.029 501.978 148.341 501.829 148.653 501.542C148.964 501.255 149.164 500.993 149.126 500.956C149.089 500.919 148.802 501.106 148.503 501.38C148.204 501.654 147.979 501.929 148.029 501.978Z" fill="#263238"/>
<path d="M147.082 500.296C147.381 500.405 147.702 500.439 148.017 500.396C148.333 500.432 148.653 500.394 148.952 500.283C148.65 500.188 148.332 500.154 148.017 500.184C147.7 500.148 147.38 500.187 147.082 500.296Z" fill="#263238"/>
<path d="M146.745 499.111C147.06 499.304 147.423 499.404 147.792 499.398C148.162 499.451 148.539 499.395 148.877 499.236C148.52 499.202 148.161 499.202 147.805 499.236C147.456 499.162 147.101 499.12 146.745 499.111Z" fill="#263238"/>
<path d="M150.086 501.144C150.466 501.213 150.854 501.213 151.234 501.144C151.657 501.087 152.075 500.991 152.48 500.857C152.723 500.781 152.957 500.681 153.179 500.558C153.249 500.52 153.311 500.469 153.36 500.407C153.409 500.345 153.445 500.273 153.465 500.196C153.48 500.109 153.47 500.02 153.437 499.939C153.404 499.857 153.349 499.787 153.278 499.735C152.834 499.529 152.333 499.482 151.858 499.603C151.384 499.723 150.965 500.003 150.672 500.395C150.505 500.628 150.382 500.89 150.311 501.169C150.289 501.271 150.289 501.377 150.311 501.48C150.43 501.128 150.603 500.796 150.822 500.495C151.079 500.19 151.416 499.961 151.795 499.834C152.248 499.677 152.745 499.704 153.179 499.909C153.353 500.046 153.291 500.258 153.091 500.383C152.885 500.499 152.668 500.595 152.443 500.67C152.037 500.81 151.62 500.919 151.196 500.994C150.51 501.106 150.086 501.106 150.086 501.144Z" fill="#263238"/>
<path d="M150.373 501.23C150.514 500.99 150.558 500.705 150.498 500.432C150.451 500.132 150.336 499.846 150.161 499.597C150.063 499.428 149.923 499.287 149.755 499.187C149.587 499.087 149.397 499.03 149.201 499.023C149.143 499.035 149.088 499.059 149.038 499.092C148.989 499.126 148.947 499.168 148.915 499.218C148.882 499.268 148.86 499.324 148.849 499.383C148.838 499.441 148.839 499.501 148.852 499.56C148.88 499.743 148.948 499.917 149.052 500.071C149.203 500.326 149.392 500.557 149.613 500.757C149.791 500.964 150.018 501.122 150.274 501.218C150.274 501.218 150.049 501.018 149.725 500.657C149.538 500.444 149.371 500.214 149.226 499.971C149.064 499.734 148.952 499.298 149.226 499.235C149.501 499.173 149.812 499.485 149.987 499.709C150.154 499.932 150.273 500.186 150.336 500.457C150.37 500.713 150.383 500.972 150.373 501.23Z" fill="#263238"/>
<path d="M130.947 500.283C130.947 500.283 131.458 500.283 132.268 500.283C133.326 500.384 134.333 500.781 135.174 501.43C136.014 502.078 136.654 502.952 137.019 503.949C137.306 504.71 137.343 505.196 137.381 505.196C137.405 505.077 137.405 504.954 137.381 504.835C137.34 504.509 137.269 504.187 137.169 503.874C136.823 502.833 136.172 501.919 135.3 501.252C134.429 500.585 133.377 500.195 132.281 500.134C131.954 500.097 131.623 500.097 131.296 500.134C131.171 500.16 131.052 500.211 130.947 500.283Z" fill="#263238"/>
<path d="M132.693 492.802C132.581 494.024 132.548 495.253 132.593 496.48C132.553 497.728 132.591 498.977 132.705 500.221C132.819 498.977 132.852 497.728 132.805 496.48C132.835 495.253 132.797 494.025 132.693 492.802Z" fill="#263238"/>
<path d="M139.638 503.588C140.503 503.766 141.386 503.837 142.269 503.8C143.149 503.837 144.03 503.753 144.887 503.55C144.887 503.488 143.64 503.55 142.269 503.55C140.897 503.55 139.65 503.525 139.638 503.588Z" fill="#263238"/>
<path d="M136.134 503.625C136.134 503.625 136.234 503.874 136.346 504.148C136.458 504.423 136.546 504.647 136.608 504.647C136.67 504.647 136.695 504.36 136.546 504.049C136.396 503.737 136.171 503.587 136.134 503.625Z" fill="#263238"/>
<path d="M134.775 502.004C134.775 502.004 134.85 502.228 135.049 502.415C135.249 502.602 135.423 502.714 135.461 502.677C135.498 502.639 135.386 502.44 135.199 502.265C135.012 502.091 134.825 501.954 134.775 502.004Z" fill="#263238"/>
<path d="M132.867 501.231C132.867 501.231 133.129 501.23 133.391 501.368C133.652 501.505 133.839 501.592 133.889 501.555C133.939 501.517 133.79 501.268 133.453 501.168C133.116 501.068 132.854 501.231 132.867 501.231Z" fill="#263238"/>
<path d="M131.521 500.944C131.521 500.944 131.595 501.093 131.745 501.143C131.895 501.193 132.032 501.205 132.057 501.143C132.082 501.081 131.969 500.993 131.82 500.944C131.67 500.894 131.533 500.881 131.521 500.944Z" fill="#263238"/>
<path d="M85.6105 497.827L91.6953 490.433L77.9048 478.949L68.9023 489.672L69.7003 490.445C73.3288 493.824 88.4035 507.366 91.5706 508.712C95.1242 510.221 85.6105 497.827 85.6105 497.827Z" fill="#BA68C8"/>
<g opacity="0.5">
<path d="M74.0271 493.75C74.7899 492.417 75.0341 490.85 74.7128 489.348C74.4071 487.864 73.552 486.55 72.3188 485.67L69.0396 489.498L74.0271 493.75Z" fill="white"/>
</g>
<g opacity="0.4">
<path d="M90.0868 504.085C90.0868 504.085 93.204 508.686 92.1317 508.936C91.0593 509.185 75.2739 496.068 68.9023 489.672L69.1767 489.385L87.3935 504.846C87.3935 504.846 89.2514 503.45 90.0868 504.085Z" fill="white"/>
</g>
<path d="M68.9646 489.198L69.1766 489.423L69.8249 490.034L72.2439 492.228C74.2888 494.061 77.1566 496.567 80.386 499.261C83.6154 501.954 86.6204 504.335 88.765 506.031L91.3585 508.014L92.0692 508.537L92.3311 508.712L92.0942 508.5L91.4084 507.939L88.9146 505.906C86.7575 504.186 83.8024 501.792 80.573 499.098C77.3436 496.405 74.4633 493.924 72.3935 492.116L69.8998 489.971L69.2264 489.385L68.9646 489.198Z" fill="#263238"/>
<path d="M87.2065 505.059C87.6609 504.728 88.1553 504.455 88.6779 504.248C89.217 504.111 89.7683 504.028 90.3237 503.999C89.7683 503.795 89.1584 503.795 88.603 503.999C88.0246 504.171 87.5284 504.548 87.2065 505.059Z" fill="#263238"/>
<path d="M84.8623 499.597C84.8623 499.659 85.2738 499.597 85.7351 499.435C86.1965 499.273 86.5705 499.123 86.5456 499.061C86.5206 498.999 86.1341 499.061 85.6728 499.223C85.3789 499.288 85.1024 499.416 84.8623 499.597Z" fill="#263238"/>
<path d="M84.239 498.076C84.239 498.076 84.5757 498.176 84.9996 498.163C85.4235 498.151 85.7477 498.089 85.7477 498.026C85.7477 497.964 85.3986 497.926 84.9871 497.939C84.7305 497.927 84.4745 497.973 84.239 498.076Z" fill="#263238"/>
<path d="M84.613 496.243C84.613 496.243 84.8624 496.592 85.2614 496.929C85.4864 497.156 85.7531 497.338 86.0469 497.465C86.0469 497.465 85.7976 497.103 85.3986 496.766C84.9996 496.43 84.6629 496.143 84.613 496.243Z" fill="#263238"/>
<path d="M85.1367 495.071C85.2725 495.413 85.4794 495.722 85.7439 495.978C86.0083 496.234 86.3241 496.431 86.6704 496.555C86.4289 496.293 86.1706 496.048 85.8973 495.819C85.4858 495.42 85.2489 494.996 85.1367 495.071Z" fill="#263238"/>
<path d="M86.3339 498.737C86.5811 499.034 86.8813 499.284 87.2191 499.472C87.5729 499.701 87.9488 499.893 88.3413 500.046C88.5731 500.151 88.8156 500.23 89.0645 500.283C89.2214 500.309 89.3825 500.273 89.5134 500.183C89.5821 500.13 89.634 500.058 89.6628 499.976C89.6915 499.895 89.696 499.806 89.6755 499.722C89.4831 499.266 89.1371 498.891 88.6976 498.663C88.258 498.436 87.7526 498.369 87.269 498.475C86.9843 498.531 86.7158 498.65 86.4835 498.824C86.3961 498.88 86.32 498.952 86.259 499.036C86.5785 498.842 86.9283 498.703 87.2939 498.624C87.6897 498.556 88.0967 498.604 88.466 498.762C88.9104 498.934 89.2689 499.274 89.4635 499.709C89.4635 499.934 89.3264 500.058 89.0894 500.021C88.8595 499.969 88.6343 499.898 88.4161 499.809C88.0319 499.666 87.6607 499.491 87.3064 499.285C86.6954 499.048 86.3588 498.737 86.3339 498.737Z" fill="#263238"/>
<path d="M86.4956 499.024C86.4956 499.024 86.8198 498.924 87.1191 498.5C87.2798 498.243 87.3819 497.953 87.4183 497.652C87.4469 497.458 87.429 497.259 87.3662 497.073C87.3033 496.886 87.1973 496.718 87.0567 496.58C86.9492 496.522 86.8232 496.51 86.7064 496.545C86.5896 496.58 86.4914 496.66 86.4333 496.767C86.3385 496.923 86.2789 497.097 86.2587 497.278C86.2223 497.572 86.2223 497.87 86.2587 498.164C86.2587 498.438 86.3273 498.708 86.4582 498.949C86.4582 498.949 86.4582 498.637 86.4582 498.164C86.4548 497.879 86.4799 497.595 86.533 497.316C86.533 497.029 86.7575 496.63 87.0193 496.767C87.2812 496.904 87.2936 497.341 87.2936 497.627C87.2714 497.903 87.1907 498.171 87.0567 498.413C86.8929 498.637 86.7047 498.842 86.4956 499.024Z" fill="#263238"/>
<path d="M72.3936 485.67C72.3936 485.67 72.8175 485.957 73.3786 486.543C74.1088 487.315 74.6134 488.272 74.8374 489.311C75.044 490.353 74.9577 491.432 74.5881 492.428C74.3013 493.201 73.9896 493.613 74.027 493.675C74.1207 493.593 74.2007 493.496 74.2639 493.388C74.4497 493.12 74.6045 492.831 74.7252 492.528C75.1563 491.513 75.2693 490.391 75.0494 489.311C74.8243 488.233 74.2815 487.247 73.4908 486.48C73.2552 486.25 72.9961 486.046 72.7177 485.869C72.6235 485.783 72.5134 485.715 72.3936 485.67Z" fill="#263238"/>
<path d="M78.603 481.118C77.7173 481.977 76.8845 482.889 76.1092 483.849C75.2862 484.763 74.512 485.72 73.79 486.717C74.6813 485.868 75.5145 484.959 76.2838 483.998C77.1055 483.079 77.8796 482.117 78.603 481.118Z" fill="#263238"/>
<path d="M76.8323 493.836C77.3651 494.536 77.9853 495.164 78.6777 495.707C79.325 496.308 80.0506 496.82 80.8347 497.228C80.8347 497.228 79.9245 496.48 78.8273 495.544C77.73 494.609 76.8822 493.749 76.8323 493.836Z" fill="#263238"/>
<path d="M74.1392 491.58C74.1392 491.58 74.052 491.829 73.9772 492.116C73.9023 492.402 73.7901 492.614 73.84 492.652C73.8899 492.689 74.0894 492.502 74.1891 492.166C74.2889 491.829 74.2016 491.567 74.1392 491.58Z" fill="#263238"/>
<path d="M74.1766 489.46C74.1143 489.46 74.0894 489.684 74.1143 489.946C74.1392 490.208 74.2016 490.42 74.2639 490.42C74.3263 490.42 74.3512 490.196 74.2639 489.934C74.1766 489.672 74.239 489.46 74.1766 489.46Z" fill="#263238"/>
<path d="M73.2041 487.665C73.2041 487.727 73.3662 487.877 73.5034 488.113C73.6405 488.35 73.7029 488.587 73.7652 488.587C73.8275 488.587 73.865 488.3 73.6904 488.001C73.5158 487.702 73.229 487.615 73.2041 487.665Z" fill="#263238"/>
<path d="M72.3936 486.53C72.3936 486.53 72.3936 486.704 72.3936 486.841C72.3936 486.979 72.5806 487.066 72.6305 487.041C72.6803 487.016 72.6305 486.866 72.6305 486.729C72.6305 486.592 72.4434 486.505 72.3936 486.53Z" fill="#263238"/>
<path d="M122.93 297.478C122.93 297.478 116.957 322.74 118.653 327.74C120.349 332.74 131.284 335.62 131.284 335.62L130.91 404.809L70.4111 479.622L92.7302 497.876C92.7302 497.876 158.241 422.951 164.014 409.348C169.787 395.744 160.274 296.318 160.274 296.318L122.93 297.478Z" fill="#280340"/>
<path d="M153.827 287.18L156.782 497.303L126.022 497.49L110.573 326.319C107.306 323.202 102.705 317.865 103.341 305.958L104.089 292.13L153.827 287.18Z" fill="#280340"/>
<path d="M121.408 416.505C121.453 416.394 121.512 416.289 121.583 416.193C121.745 415.969 121.932 415.682 122.169 415.333L124.451 412.103L132.805 400.532V400.694C132.132 393.4 131.321 384.56 130.448 375.021C129.326 362.552 128.428 351.206 127.892 342.989C127.618 338.887 127.443 335.57 127.344 333.276C127.344 332.179 127.269 331.293 127.256 330.62C127.218 330.314 127.218 330.004 127.256 329.697C127.317 330.002 127.354 330.31 127.369 330.62C127.369 331.281 127.493 332.166 127.58 333.263C127.768 335.62 128.017 338.912 128.341 342.964C128.989 351.156 129.962 362.465 131.084 374.959C131.92 384.535 132.767 393.363 133.329 400.694V400.782V400.857L124.787 412.278L122.381 415.433L121.733 416.243C121.471 416.443 121.408 416.517 121.408 416.505Z" fill="#455A64"/>
<path d="M130.835 329.698C128.082 329.551 125.351 329.134 122.68 328.451C119.964 327.991 117.299 327.265 114.725 326.281C117.451 326.631 120.153 327.143 122.817 327.815C125.524 328.289 128.2 328.918 130.835 329.698Z" fill="#455A64"/>
<path d="M151.907 401.48C149.252 400.378 146.457 399.648 143.603 399.31C140.727 399.195 137.848 399.476 135.049 400.146C135.78 399.684 136.593 399.367 137.443 399.211C139.476 398.68 141.583 398.495 143.677 398.662C145.758 398.829 147.797 399.339 149.712 400.171C150.516 400.472 151.26 400.916 151.907 401.48Z" fill="#455A64"/>
<path d="M162.767 411.181C162.905 411.294 154.251 422.915 143.428 437.129C132.605 451.343 123.715 462.802 123.578 462.702C123.441 462.603 132.094 450.969 142.917 436.742C153.74 422.516 162.63 411.069 162.767 411.181Z" fill="#455A64"/>
<path d="M158.602 302.778C158.248 303.688 157.648 304.482 156.869 305.072C155.978 305.853 154.936 306.44 153.806 306.799C152.677 307.157 151.487 307.278 150.309 307.153C149.131 307.029 147.991 306.663 146.961 306.077C145.932 305.492 145.035 304.7 144.326 303.75C143.666 303.021 143.233 302.116 143.079 301.145C143.559 301.942 144.083 302.712 144.65 303.451C146.075 305.179 148.122 306.277 150.349 306.51C152.576 306.744 154.806 306.093 156.558 304.698C157.272 304.094 157.955 303.453 158.602 302.778Z" fill="#455A64"/>
<path d="M116.545 194.661C111.477 189.845 108.488 183.241 108.215 176.254C107.943 169.268 110.408 162.451 115.087 157.255" fill="#263238"/>
<path d="M99.2514 214.262C99.2514 214.262 92.5681 221.818 91.1841 250.708C91.1841 250.708 110.224 254.324 110.573 253.289C110.922 252.254 99.2514 214.262 99.2514 214.262Z" fill="#BA68C8"/>
<g opacity="0.3">
<path d="M99.2514 214.262C99.2514 214.262 92.5681 221.818 91.1841 250.708C91.1841 250.708 110.224 254.324 110.573 253.289C110.922 252.254 99.2514 214.262 99.2514 214.262Z" fill="black"/>
</g>
<path d="M102.344 298.413H160.81L159.862 289.274C159.862 289.274 153.179 254.536 153.229 254.075L154.276 251.868C155.642 249.002 156.373 245.875 156.418 242.7C156.463 239.526 155.822 236.38 154.538 233.476L183.216 223.688L176.209 200.072C163.216 202.254 143.578 204.711 143.578 204.711L140.66 204.948C140.66 204.948 120.386 206.007 119.95 206.057C111.471 207.092 101.608 207.741 98.0046 216.818C96.072 221.668 97.9049 228.95 101.059 236.456L108.541 259.523C111.533 272.204 106.758 271.593 104.127 284.361C103.703 286.281 102.306 296.643 102.344 298.413Z" fill="#BA68C8"/>
<g opacity="0.3">
<path d="M102.344 298.413H160.81L159.862 289.274C159.862 289.274 153.179 254.536 153.229 254.075L154.276 251.868C155.643 249.002 156.373 245.875 156.418 242.7C156.464 239.526 155.822 236.38 154.538 233.476L183.216 223.688L176.209 200.072C163.217 202.254 143.578 204.711 143.578 204.711L140.661 204.948C140.661 204.948 120.386 206.007 119.95 206.057C111.471 207.092 101.608 207.741 98.0049 216.818C96.0722 221.668 97.9051 228.95 101.06 236.456L108.541 259.523C111.533 272.204 106.758 271.593 104.127 284.361C103.703 286.281 102.307 296.643 102.344 298.413Z" fill="black"/>
</g>
<path d="M182.892 224.075C182.496 224.298 182.078 224.477 181.645 224.611C180.822 224.911 179.612 225.322 178.116 225.858C175.124 226.868 170.959 228.202 166.371 229.674C161.782 231.145 157.642 232.604 154.775 233.801C153.303 234.399 152.144 234.923 151.333 235.272C150.94 235.49 150.521 235.657 150.086 235.771C150.449 235.483 150.842 235.236 151.258 235.035C152.044 234.624 153.179 234.025 154.625 233.377C158.405 231.73 162.272 230.289 166.209 229.063C170.81 227.591 174.937 226.32 178.016 225.422C179.525 224.973 180.76 224.624 181.607 224.387C182.021 224.23 182.452 224.125 182.892 224.075Z" fill="#263238"/>
<path d="M179.5 211.494C179.5 211.669 162.206 211.818 140.847 211.818C119.488 211.818 102.194 211.669 102.194 211.494C102.194 211.32 119.476 211.17 140.847 211.17C162.219 211.17 179.5 211.32 179.5 211.494Z" fill="#FAFAFA"/>
<path d="M181.258 222.978C181.258 223.152 162.019 223.302 138.291 223.302C114.563 223.302 95.3362 223.152 95.3362 222.978C95.3362 222.803 114.563 222.653 138.291 222.653C162.019 222.653 181.258 222.803 181.258 222.978Z" fill="#FAFAFA"/>
<path d="M100.212 236.045C99.0427 236.362 97.8273 236.472 96.6205 236.369C95.4179 236.471 94.2067 236.362 93.042 236.045C94.2067 235.728 95.4179 235.619 96.6205 235.721C97.8273 235.618 99.0427 235.728 100.212 236.045Z" fill="#FAFAFA"/>
<path d="M156.321 236.443C156.321 236.618 143.74 236.768 128.229 236.768C112.718 236.768 100.137 236.618 100.137 236.443C100.137 236.269 112.705 236.119 128.229 236.119C143.752 236.119 156.321 236.256 156.321 236.443Z" fill="#FAFAFA"/>
<path d="M155.074 249.897C155.074 250.084 143.777 250.222 129.862 250.222C115.947 250.222 104.638 250.084 104.638 249.897C104.638 249.71 115.922 249.573 129.862 249.573C143.802 249.573 155.074 249.723 155.074 249.897Z" fill="#FAFAFA"/>
<path d="M154.725 262.379C154.725 262.553 144.501 262.703 131.882 262.703C119.264 262.703 109.014 262.553 109.014 262.379C109.014 262.204 119.251 262.055 131.882 262.055C144.513 262.055 154.725 262.192 154.725 262.379Z" fill="#FAFAFA"/>
<path d="M156.732 272.466C156.732 272.653 145.785 272.79 132.281 272.79C118.777 272.79 107.83 272.653 107.83 272.466C107.83 272.279 118.777 272.142 132.281 272.142C145.785 272.142 156.732 272.291 156.732 272.466Z" fill="#FAFAFA"/>
<path d="M159.899 285.334C159.899 285.521 147.431 285.658 132.081 285.658C116.732 285.658 104.264 285.521 104.264 285.334C104.264 285.147 116.732 285.01 132.081 285.01C147.431 285.01 159.899 285.159 159.899 285.334Z" fill="#FAFAFA"/>
<path d="M108.154 258.439C107.919 258.087 107.742 257.7 107.63 257.292L106.383 254.1C105.349 251.406 103.89 247.691 102.393 243.539C100.897 239.387 99.6379 235.596 98.8523 232.816C98.4658 231.419 98.1666 230.322 98.0045 229.499C97.8845 229.093 97.8133 228.675 97.7925 228.252C98.3694 229.7 98.8689 231.177 99.2887 232.678C100.186 235.421 101.496 239.187 103.029 243.327C104.563 247.466 105.91 251.207 106.77 253.95C107.231 255.322 107.58 256.444 107.805 257.217C107.973 257.608 108.09 258.018 108.154 258.439Z" fill="#263238"/>
</svg>
